<?xml version="1.0" encoding="UTF-8"?>
<svg version="1.1" xmlns="http://www.w3.org/2000/svg" width="316" height="345">
<path d="M0 0 C37.37336842 -3.13187991 90.07385477 19.79671812 119.38916016 42.89648438 C130.72345297 52.73069414 137.59648316 66.80918519 142.22827148 80.82739258 C142.85748491 82.66300769 143.53443554 84.4823927 144.2355957 86.29174805 C147.65063652 95.24966778 149.74014019 104.12316261 151.44067383 113.53881836 C151.88236283 115.96265042 152.35431234 118.37924068 152.82861328 120.796875 C155.83656505 136.71082392 156.69233298 152.04425023 152.01025391 167.72851562 C151.66736328 168.92516846 151.32447266 170.12182129 150.97119141 171.35473633 C146.20195684 187.19324308 139.51227766 202.33851146 132.87280273 217.4642334 C131.80868572 219.89397266 130.76113142 222.33074538 129.71337891 224.76757812 C125.72727656 233.95803412 121.36030447 242.95924446 116.99755859 251.97558594 C113.91522925 258.39155649 111.22206739 264.82350736 108.69775391 271.47851562 C107.5716252 274.27341536 106.24421414 276.85669451 104.76025391 279.47851562 C94.77776242 297.40424475 89.67893185 316.99079211 84.03964233 336.61308289 C83.79452911 337.46360733 83.54941589 338.31413177 83.296875 339.19042969 C83.08356537 339.93681702 82.87025574 340.68320435 82.65048218 341.45220947 C82.07275391 343.29101562 82.07275391 343.29101562 81.07275391 345.29101562 C70.30726007 344.67910902 59.67056153 343.29204029 48.99511719 341.81689453 C46.05230935 341.41321112 43.10760971 341.0259036 40.16259766 340.63867188 C38.27834555 340.38055926 36.39422559 340.12147967 34.51025391 339.86132812 C33.63626953 339.74870636 32.76228516 339.63608459 31.86181641 339.52005005 C22.82638812 338.23221249 18.31506772 333.85851019 11.98291016 327.57226562 C10.81144691 326.41434509 10.81144691 326.41434509 9.61631775 325.23303223 C7.96031657 323.59153197 6.30710752 321.94721083 4.65649414 320.30029297 C2.18727533 317.84279022 -0.2999395 315.40461278 -2.78857422 312.96679688 C-12.74144195 303.11427806 -21.40321071 292.92005043 -29.4083252 281.4329071 C-31.94525219 277.85548427 -34.62331481 274.38763219 -37.30224609 270.91601562 C-38.36745777 269.52937946 -39.4325738 268.1426698 -40.49755859 266.75585938 C-41.04573242 266.04284668 -41.59390625 265.32983398 -42.15869141 264.59521484 C-44.80541613 261.14687305 -47.44197217 257.69081452 -50.07714844 254.23364258 C-51.46948527 252.40703003 -52.86302699 250.58133524 -54.2578125 248.7565918 C-57.04841 245.10065864 -59.83646986 241.44769417 -62.52099609 237.71289062 C-67.17537534 231.27095993 -72.21618617 225.76178856 -77.93505859 220.27539062 C-80.18293012 218.09191515 -82.24987222 215.80634364 -84.29443359 213.43164062 C-87.97293713 209.17317012 -91.91169269 205.22964271 -95.92724609 201.29101562 C-99.90282456 197.39159767 -103.80370843 193.49575435 -107.42724609 189.26367188 C-109.80065038 186.50256661 -112.2642149 183.95775793 -114.92724609 181.47460938 C-115.58595703 180.85521484 -116.24466797 180.23582031 -116.92333984 179.59765625 C-118.27800405 178.33409519 -119.64566446 177.0843472 -121.02490234 175.84765625 C-121.9975 174.92049805 -121.9975 174.92049805 -122.98974609 173.97460938 C-123.57884766 173.43376709 -124.16794922 172.8929248 -124.77490234 172.33569336 C-126.92038444 168.5288263 -125.14095504 164.10137093 -124.07463074 160.05801392 C-123.73361832 158.95235077 -123.3926059 157.84668762 -123.04125977 156.70751953 C-122.75807137 155.78134323 -122.75807137 155.78134323 -122.46916199 154.8364563 C-122.06169208 153.50612613 -121.65185441 152.17651927 -121.23985863 150.84758377 C-120.58256209 148.72675278 -119.93199468 146.60395621 -119.28303528 144.4805603 C-117.66769622 139.19989146 -116.04148007 133.92258729 -114.41485596 128.64538574 C-113.04199809 124.19025065 -111.67381699 119.73372839 -110.31145668 115.27537155 C-109.68009803 113.21560193 -109.0422872 111.15791182 -108.40409851 109.10025024 C-104.68090496 96.98958885 -101.48500062 84.73714279 -99.61376953 72.19287109 C-97.7051221 59.93616519 -94.33351376 47.17503559 -84.23974609 39.11132812 C-81.03459313 36.79288776 -77.70360185 34.7521395 -74.29077148 32.75683594 C-71.41109667 30.97090808 -68.69302223 28.99942665 -65.93896484 27.02539062 C-58.50578176 21.78790857 -50.61782624 17.59182888 -42.48974609 13.54101562 C-41.74435577 13.1690506 -40.99896545 12.79708557 -40.23098755 12.41384888 C-26.99740281 5.86975686 -14.76510592 1.46789043 0 0 Z " fill="#060606" transform="translate(160.92724609375,-0.291015625)"/>
<path d="M0 0 C15.67137465 -1.86303055 30.09631383 3.90580022 44.58154297 9.31591797 C45.44021973 9.58952148 46.29889648 9.863125 47.18359375 10.14501953 C54.1798297 12.63957304 56.73050826 17.24104384 60.20654297 23.56591797 C61.41659569 25.68640232 62.63024458 27.80483789 63.84716797 29.92138672 C64.46269531 30.99952637 65.07822266 32.07766602 65.71240234 33.18847656 C67.44390788 36.08562729 69.28483731 38.81464355 71.25341797 41.55419922 C83.46912209 58.87162324 89.37681589 78.20935453 95.90060425 98.17884827 C98.4685042 106.0369437 101.22145008 113.80960447 104.08154297 121.56591797 C104.7821514 123.46596926 105.48041789 125.36688742 106.17529297 127.26904297 C106.45050781 128.0131543 106.72572266 128.75726563 107.00927734 129.52392578 C107.58154297 131.31591797 107.58154297 131.31591797 107.58154297 133.31591797 C111.21154297 133.31591797 114.84154297 133.31591797 118.58154297 133.31591797 C118.41138672 132.08228516 118.24123047 130.84865234 118.06591797 129.57763672 C115.91809542 113.45541191 114.400553 97.29217768 112.93994141 81.09594727 C112.85718964 80.18141281 112.77443787 79.26687836 112.68917847 78.32463074 C112.53401307 76.60488256 112.38020627 74.88501101 112.22805786 73.16499329 C112.08880089 71.61557275 111.94442346 70.06660143 111.79421997 68.51820374 C111.65251438 67.05083212 111.52364589 65.58216374 111.40768433 64.11253357 C111.01148028 59.90395596 110.35295664 57.19040337 107.66748047 53.91357422 C106.77222656 52.79499023 106.77222656 52.79499023 105.85888672 51.65380859 C104.91722656 50.52749023 104.91722656 50.52749023 103.95654297 49.37841797 C102.7351888 47.86930339 101.51383464 46.3601888 100.29248047 44.85107422 C99.68629883 44.11131348 99.08011719 43.37155273 98.45556641 42.609375 C96.49482644 40.20979302 94.5477581 37.80117067 92.62060547 35.37451172 C92.03746582 34.64417725 91.45432617 33.91384277 90.85351562 33.16137695 C89.58154297 31.31591797 89.58154297 31.31591797 89.58154297 29.31591797 C105.80854741 33.5861823 119.82087517 47.28696437 128.09814453 61.45898438 C137.8789969 80.29630078 142.63895742 101.46219282 145.58154297 122.31591797 C145.69135498 123.02119629 145.80116699 123.72647461 145.91430664 124.453125 C146.73215124 130.07767508 146.69485509 135.6484123 146.64404297 141.31591797 C146.63953125 142.28142578 146.63501953 143.24693359 146.63037109 144.24169922 C146.61869714 146.59983886 146.60232318 148.95784399 146.58154297 151.31591797 C131.82569404 152.18830769 118.20245897 151.36336218 103.83154297 148.12841797 C103.17202637 147.982341 102.51250977 147.83626404 101.83300781 147.6857605 C87.13321559 144.38027712 73.60044009 139.07419697 60.00082397 132.73120117 C56.13817769 130.93073507 52.26522849 129.15261618 48.39404297 127.37060547 C47.24448372 126.84046844 47.24448372 126.84046844 46.07170105 126.29962158 C36.84168863 122.04557931 27.55884252 117.92129616 18.22705078 113.89550781 C15.47531307 112.70318642 12.72786365 111.50267614 9.98291016 110.29492188 C5.73192889 108.42565753 1.4724566 106.57687542 -2.79208374 104.73876953 C-4.48280551 104.00655879 -6.17089797 103.26824242 -7.85610962 102.5234375 C-20.14571312 96.80290063 -20.14571312 96.80290063 -33.41845703 96.31591797 C-34.36744873 96.43749268 -35.31644043 96.55906738 -36.29418945 96.68432617 C-39.40181427 97.13392209 -42.46324815 97.70762515 -45.54345703 98.31591797 C-46.57599609 98.48736328 -47.60853516 98.65880859 -48.67236328 98.83544922 C-56.49399142 100.37984713 -60.36562153 103.27241585 -65.41845703 109.31591797 C-66.22150269 110.04403687 -66.22150269 110.04403687 -67.04077148 110.78686523 C-69.17791251 112.81088727 -70.35682901 114.60447911 -70.61230469 117.55371094 C-70.45143104 120.47963464 -70.10787981 123.34734332 -69.73095703 126.25341797 C-68.40718031 139.39014058 -68.15102135 152.43078788 -68.16845703 165.62841797 C-68.16923248 166.64129883 -68.17000793 167.65417969 -68.17080688 168.69775391 C-68.20780879 185.63685611 -68.87579593 202.44306214 -70.41845703 219.31591797 C-71.07845703 219.31591797 -71.73845703 219.31591797 -72.41845703 219.31591797 C-73.68798828 218.02294922 -73.68798828 218.02294922 -75.23095703 216.12841797 C-79.09067911 211.57281308 -83.2673357 207.405376 -87.53491211 203.23706055 C-90.42624265 200.39066612 -93.17621777 197.48455799 -95.82470703 194.40966797 C-99.49027769 190.16767313 -103.41782413 186.23991039 -107.41845703 182.31591797 C-112.13521305 177.68952126 -116.67348565 172.99958223 -120.97314453 167.97998047 C-122.07248501 166.71425332 -123.23300043 165.50137457 -124.41845703 164.31591797 C-124.01907357 160.25760891 -122.95828913 156.46562531 -121.77392578 152.57373047 C-121.43240479 151.44418945 -121.09088379 150.31464844 -120.73901367 149.15087891 C-120.36510498 147.9265918 -119.99119629 146.70230469 -119.60595703 145.44091797 C-119.21284046 144.14190256 -118.8201933 142.84274501 -118.42797852 141.54345703 C-116.83999885 136.28659913 -115.24376961 131.0322507 -113.64733887 125.7779541 C-112.02170196 120.42653583 -110.40038129 115.07383982 -108.78384399 109.71966553 C-107.99473577 107.11146025 -107.20018827 104.50495238 -106.40551758 101.8984375 C-103.52883402 92.40937151 -101.13265086 83.12431791 -99.66455078 73.30810547 C-97.41523443 58.49640742 -93.86673428 45.65578168 -81.39770508 36.38452148 C-78.63756155 34.46594961 -75.83207081 32.65212558 -72.96630859 30.89550781 C-70.46219848 29.34303632 -68.00124382 27.73214568 -65.53987122 26.11308289 C-44.95463749 12.64559947 -24.53938134 3.20552791 0 0 Z " fill="#8E8E8E" transform="translate(164.41845703125,3.68408203125)"/>
<path d="M0 0 C0.62866974 0.24644257 1.25733948 0.49288513 1.90505981 0.74679565 C14.59004276 5.93535973 19.83320142 13.89400844 25.08984375 26.37890625 C25.43007568 27.2922876 25.77030762 28.20566895 26.12084961 29.14672852 C28.88993523 34.09596202 34.87591644 35.69770678 39.87109375 37.8984375 C40.58548111 38.21527496 41.29986847 38.53211243 42.03590393 38.85855103 C43.5471966 39.52750693 45.05925296 40.19473986 46.57202148 40.86035156 C48.83915103 41.85920563 51.10228491 42.86671849 53.36523438 43.875 C62.27213459 47.82004589 71.1946687 51.40305319 80.4375 54.5 C81.33557373 54.80566895 82.23364746 55.11133789 83.15893555 55.42626953 C100.05288925 61.00029438 117.33206374 63.63587029 134.88330078 66.19091797 C135.82872238 66.33086685 136.77414398 66.47081573 137.74821472 66.61500549 C139.544695 66.87947221 141.34230319 67.13641527 143.1410675 67.38487244 C149.21471465 68.27721465 149.21471465 68.27721465 151.4375 70.5 C133.13132877 116.10951378 133.13132877 116.10951378 122.66552734 137.00439453 C119.50869798 143.41972449 116.6503927 149.94535858 113.96484375 156.5703125 C112.43405124 160.2849721 110.79433149 163.80824486 108.81640625 167.3046875 C97.39969426 187.64247821 91.79217153 210.19912776 85.4375 232.5 C74.37573357 231.90672187 63.51817094 230.51403707 52.5625 228.9375 C50.89198917 228.70073341 49.22141651 228.46440266 47.55078125 228.22851562 C43.51229263 227.65734984 39.47467882 227.08034845 35.4375 226.5 C37.33255424 219.76143623 39.62478846 213.33361718 42.3125 206.875 C43.37115615 204.2393466 44.41954936 201.59986086 45.46386719 198.95849609 C46.06710254 197.43528144 46.67602682 195.91429019 47.29394531 194.39697266 C55.08282887 174.93456109 51.65441118 154.95468049 47.00439453 135.10205078 C46.4375 132.5 46.4375 132.5 45.96484375 128.80859375 C44.28239406 116.28006063 34.44495689 102.08252715 24.7109375 94.21484375 C21.74471077 92.09645059 18.64298711 90.28911502 15.42919922 88.57421875 C13.27002241 87.40967131 11.16974473 86.16871587 9.06640625 84.90625 C6.15272802 83.15797905 3.2265362 81.43666189 0.28125 79.7421875 C-2.6670314 78.03983848 -5.52213493 76.23338041 -8.375 74.375 C-16.15647856 69.6325227 -25.07535562 66.73425677 -33.5625 63.5 C-33.85315058 58.79045575 -34.13765637 54.08059026 -34.41699219 49.37036133 C-34.51239696 47.77521272 -34.60934766 46.18015565 -34.70800781 44.58520508 C-35.34872911 34.20617382 -35.70136382 23.90032186 -35.5625 13.5 C-40.3636299 13.21147795 -40.3636299 13.21147795 -45.1652832 12.93188477 C-48.16844873 12.74164809 -50.69451045 12.45599652 -53.5625 11.5 C-52.19586725 8.45857221 -50.64199765 6.25696381 -48.3125 3.875 C-47.75046875 3.28460938 -47.1884375 2.69421875 -46.609375 2.0859375 C-41.64491091 -1.76057475 -35.10490059 -2.20407425 -29.0625 -3.125 C-28.23363281 -3.2590625 -27.40476562 -3.393125 -26.55078125 -3.53125 C-16.59387602 -5.08256433 -9.37988153 -3.69386128 0 0 Z " fill="#8F8F8F" transform="translate(153.5625,107.5)"/>
<path d="M0 0 C2.45873768 0.14058476 4.91685175 0.28722999 7.375 0.4375 C8.07367188 0.47681641 8.77234375 0.51613281 9.4921875 0.55664062 C14.7734375 0.88671875 14.7734375 0.88671875 17 2 C17.35440063 3.94252014 17.35440063 3.94252014 17.50244141 6.51977539 C17.5623526 7.48069595 17.62226379 8.44161652 17.68399048 9.43165588 C17.73928925 10.476436 17.79458801 11.52121613 17.8515625 12.59765625 C17.94719986 14.19364906 17.94719986 14.19364906 18.04476929 15.82188416 C18.24720365 19.2349638 18.43623277 22.64863978 18.625 26.0625 C18.75953732 28.37049414 18.89494243 30.67843786 19.03125 32.98632812 C19.36425477 38.65700458 19.68624421 44.32822774 20 50 C21.04832504 50.411931 21.04832504 50.411931 22.11782837 50.83218384 C36.05216674 56.32166818 49.00824585 62.32146772 61.60205078 70.45458984 C64.05139182 72.03312057 66.52215547 73.57365202 68.99609375 75.11328125 C77.01816263 80.18310049 83.99418663 84.73260851 89 93 C89.60972656 93.88558594 90.21945313 94.77117187 90.84765625 95.68359375 C102.51717335 112.96022995 108.74543484 144.31464706 105 165 C102.73257324 173.92382479 99.43272387 182.4706194 96 191 C95.63261719 191.92651367 95.26523438 192.85302734 94.88671875 193.80761719 C92.99274746 198.56914614 91.03673683 203.297823 89 208 C85.96437997 206.63810315 83.83276816 205.09632188 81.46337891 202.76977539 C80.78812164 202.11050552 80.11286438 201.45123566 79.41714478 200.77198792 C78.69425262 200.05445847 77.97136047 199.33692902 77.2265625 198.59765625 C76.4663681 197.84649033 75.70617371 197.0953244 74.92294312 196.32139587 C73.30803479 194.72100754 71.69593484 193.11778116 70.08642578 191.51196289 C67.68076797 189.11799693 65.25714608 186.74337024 62.83203125 184.36914062 C52.99760509 174.63651096 44.50344682 164.53143432 36.57646179 153.19944763 C33.83543172 149.37521787 30.91489662 145.69231561 28 142 C22.49093095 134.97363153 17.14078328 127.84569111 11.88085938 120.63085938 C11.34396484 119.89544922 10.80707031 119.16003906 10.25390625 118.40234375 C9.72941895 117.67176758 9.20493164 116.94119141 8.66455078 116.18847656 C7.01537309 113.95184306 7.01537309 113.95184306 5.03466797 111.85058594 C1.38467865 107.75431372 -0.45038193 104.98354162 -0.5 99.3984375 C-0.37121661 97.38783967 -0.203792 95.3793846 0 93.375 C0.07089844 92.39660156 0.14179687 91.41820312 0.21484375 90.41015625 C0.44696737 87.27037882 0.72343219 84.13615253 1 81 C1.92057648 69.73348061 2.19747966 58.54822424 2.1875 47.25 C2.1882251 46.40758759 2.1889502 45.56517517 2.18969727 44.69723511 C2.18828117 29.71939502 1.47216829 14.91157692 0 0 Z " fill="#8F8F8F" transform="translate(97,123)"/>
<path d="M0 0 C1.29307226 0.41228391 2.58434733 0.83020294 3.875 1.25 C4.59429687 1.48203125 5.31359375 1.7140625 6.0546875 1.953125 C14.61298863 4.99506758 22.89919397 8.67234362 31.1875 12.375 C32.92616333 13.14469116 32.92616333 13.14469116 34.69995117 13.92993164 C41.13266438 16.78310025 47.5249941 19.70619093 53.8828125 22.72265625 C67.84439619 29.31243953 81.15736458 34.93866257 96.49414062 37.54980469 C99.01333856 38.00239637 101.49222658 38.55039761 103.984375 39.1328125 C116.63558968 42.02927808 129.04339994 42.76612635 142 43 C140.02 51.91 140.02 51.91 138 61 C98.05555476 56.2160012 63.13645947 47.46045335 26.5078125 30.94921875 C25.32987625 30.41988235 25.32987625 30.41988235 24.12814331 29.87985229 C13.03511845 24.82570228 13.03511845 24.82570228 9.66796875 18.7109375 C8.81235352 17.17566406 8.81235352 17.17566406 7.93945312 15.609375 C7.36130859 14.54203125 6.78316406 13.4746875 6.1875 12.375 C5.2912793 10.76238281 5.2912793 10.76238281 4.37695312 9.1171875 C0 1.19365179 0 1.19365179 0 0 Z " fill="#B00202" transform="translate(168,116)"/>
<path d="M0 0 C0.83660156 0.28101562 1.67320312 0.56203125 2.53515625 0.8515625 C4.86123757 1.62255225 7.20352816 2.34612994 9.55859375 3.0234375 C22.25391561 7.19854077 28.06030232 15.76148222 35.31640625 26.53857422 C37.7029891 30.02777495 40.26996176 33.36006425 42.875 36.6875 C43.65617187 37.70199219 44.43734375 38.71648438 45.2421875 39.76171875 C46.81017285 41.84996447 46.81017285 41.84996447 48 43 C48.27089646 44.81418319 48.48000813 46.63763152 48.66430664 48.46264648 C48.78435562 49.63153915 48.9044046 50.80043182 49.02809143 52.00474548 C49.15417282 53.28064041 49.28025421 54.55653534 49.41015625 55.87109375 C49.54191757 57.17772476 49.67367889 58.48435577 49.80943298 59.83058167 C50.08886413 62.60706627 50.36500173 65.38385455 50.63891602 68.16088867 C50.98780494 71.69506594 51.34504728 75.22833733 51.7049036 78.76141262 C51.98216573 81.49366711 52.25467353 84.22638075 52.52584648 86.95924568 C52.71811301 88.88801709 52.91443514 90.81638286 53.1108551 92.74473572 C53.77268381 99.52321296 54.18066583 106.1889045 54 113 C53.01 113 52.02 113 51 113 C47.11496025 103.30257656 43.43803504 93.55915427 40.0625 83.671875 C39.73000244 82.69980103 39.39750488 81.72772705 39.05493164 80.72619629 C37.68974738 76.72660994 36.32869693 72.7257109 34.97949219 68.72070312 C29.49458812 52.47108321 23.07677145 37.93055938 14 23.3125 C13.4225 22.37083984 12.845 21.42917969 12.25 20.45898438 C8.6648271 14.62907711 5.00083921 8.85377064 1.28515625 3.10620117 C0 1 0 1 0 0 Z " fill="#8D8D8D" transform="translate(224,20)"/>
<path d="M0 0 C5.15641779 2.73446398 9.28012302 5.73461887 13.5 9.75 C14.06460938 10.28294678 14.62921875 10.81589355 15.2109375 11.36499023 C23.9190889 19.66306596 32.00519708 28.03387134 32.55859375 40.76953125 C32.54734124 42.78422713 32.50602226 44.79893828 32.4375 46.8125 C32.4070459 48.41653687 32.4070459 48.41653687 32.37597656 50.05297852 C32.29285253 53.37182767 32.15802526 56.68391574 32 60 C31.94924316 61.07668945 31.89848633 62.15337891 31.84619141 63.26269531 C31.68224718 66.32455345 31.47831433 69.37981873 31.25 72.4375 C31.18868896 73.37247314 31.12737793 74.30744629 31.06420898 75.27075195 C30.98630127 76.12886475 30.90839355 76.98697754 30.828125 77.87109375 C30.7652832 78.62318115 30.70244141 79.37526855 30.63769531 80.15014648 C30 82 30 82 28.07543945 83.23925781 C24.53725792 84.53616096 21.76444157 84.2987652 18 84 C16.27709961 82.98486328 16.27709961 82.98486328 15 81 C14.71654287 78.2382158 14.60669638 75.69086654 14.62890625 72.9296875 C14.61150818 71.29426891 14.59392399 69.65885229 14.57617188 68.0234375 C14.56614797 65.45634048 14.56249037 62.8893813 14.56420898 60.32226562 C14.68330392 47.13045631 14.68330392 47.13045631 10 35 C9.47412522 33.65567003 8.97079401 32.30209531 8.5 30.9375 C7.49678886 28.1841216 6.34090559 25.60562336 5 23 C0.96607926 15.00973392 -0.4500159 9.06698694 0 0 Z " fill="#414141" transform="translate(176,10)"/>
<path d="M0 0 C2.58311477 4.4140582 1.87476641 7.06949841 1 12 C0.67 12.66 0.34 13.32 0 14 C-0.66 14 -1.32 14 -2 14 C-2.14695313 14.58265625 -2.29390625 15.1653125 -2.4453125 15.765625 C-3.82121339 20.79478 -5.52944347 25.12304361 -8.0625 29.6875 C-14.13115327 41.47931391 -13.43312292 55.97674487 -14 69 C-14.33 69 -14.66 69 -15 69 C-14.98839844 69.92683594 -14.97679687 70.85367188 -14.96484375 71.80859375 C-14.95582031 73.00613281 -14.94679687 74.20367187 -14.9375 75.4375 C-14.92589844 76.63246094 -14.91429687 77.82742187 -14.90234375 79.05859375 C-15 82 -15 82 -16 83 C-17.47648876 83.09823996 -18.95775417 83.12973519 -20.4375 83.125 C-21.24058594 83.12757812 -22.04367188 83.13015625 -22.87109375 83.1328125 C-25 83 -25 83 -27 82 C-26.67 80.68 -26.34 79.36 -26 78 C-26.66 78 -27.32 78 -28 78 C-28 74.7 -28 71.4 -28 68 C-28.33 68 -28.66 68 -29 68 C-33.77910415 36.29576443 -33.77910415 36.29576443 -27 26 C-26.5875 25.35289063 -26.175 24.70578125 -25.75 24.0390625 C-18.92119588 14.22265658 -9.80862553 6.67583259 0 0 Z " fill="#404040" transform="translate(169,10)"/>
<path d="M0 0 C-0.185625 1.7634375 -0.185625 1.7634375 -0.375 3.5625 C-0.41234959 11.3934646 3.52210531 19.94638674 7.56640625 26.5625 C9.22266877 29.37859758 10.15069782 32.13530169 11.125 35.25 C12.04439624 38.91421862 12.04439624 38.91421862 14 42 C14.13542809 44.71370469 14.21056807 47.40556436 14.24609375 50.12109375 C14.27902796 51.79492719 14.31223968 53.46875518 14.34570312 55.14257812 C14.39318011 57.79366349 14.43760684 60.44472609 14.47680664 63.09594727 C14.51642134 65.64623234 14.56798868 68.19605902 14.62109375 70.74609375 C14.6295079 71.54196396 14.63792206 72.33783417 14.64659119 73.15782166 C14.57850222 77.54679483 14.57850222 77.54679483 17 81 C21.13997567 81.1971417 24.07703567 81.30765478 28 80 C27.505 81.485 27.505 81.485 27 83 C25.04233719 83.08082094 23.08373272 83.13910778 21.125 83.1875 C19.48917969 83.23970703 19.48917969 83.23970703 17.8203125 83.29296875 C16.88960937 83.19628906 15.95890625 83.09960938 15 83 C12.84710562 79.77065843 12.66738374 78.50447574 12.41015625 74.734375 C12.33684082 73.66509766 12.26352539 72.59582031 12.18798828 71.49414062 C11.8609166 65.41485499 11.63122467 59.33486025 11.4375 53.25 C11.39431641 51.96867187 11.35113281 50.68734375 11.30664062 49.3671875 C11.20178666 46.24486934 11.09961982 43.12248879 11 40 C10.34 40 9.68 40 9 40 C8.896875 40.639375 8.79375 41.27875 8.6875 41.9375 C8.460625 42.618125 8.23375 43.29875 8 44 C7.01 44.33 6.02 44.66 5 45 C5 47.97 5 50.94 5 54 C3.63875 53.979375 2.2775 53.95875 0.875 53.9375 C-2.86340334 53.9257255 -6.31326653 54.3705577 -10 55 C-10.66 54.67 -11.32 54.34 -12 54 C-12.4140625 51.27734375 -12.4140625 51.27734375 -12.625 47.9375 C-12.69976562 46.83277344 -12.77453125 45.72804687 -12.8515625 44.58984375 C-12.90054688 43.73519531 -12.94953125 42.88054688 -13 42 C-14.485 41.505 -14.485 41.505 -16 41 C-16.33 40.34 -16.66 39.68 -17 39 C-18.485 39.495 -18.485 39.495 -20 40 C-19.99214478 41.53539429 -19.99214478 41.53539429 -19.98413086 43.10180664 C-19.96593738 46.92422602 -19.95451584 50.74664162 -19.94506836 54.5690918 C-19.94006081 56.21883794 -19.93325284 57.8685797 -19.92456055 59.51831055 C-19.91233746 61.89893685 -19.90673578 64.27950413 -19.90234375 66.66015625 C-19.89718246 67.38960953 -19.89202118 68.11906281 -19.88670349 68.87062073 C-19.88622036 73.34941362 -20.26714932 77.58007359 -21 82 C-24.06581069 83.0219369 -26.34800074 83.1986365 -29.5625 83.25 C-31.01849609 83.28867188 -31.01849609 83.28867188 -32.50390625 83.328125 C-33.32761719 83.21984375 -34.15132812 83.1115625 -35 83 C-37.20350487 79.69474269 -37.42916433 78.00252738 -37.8515625 74.109375 C-37.98071045 72.93084961 -38.1098584 71.75232422 -38.24291992 70.53808594 C-38.36900635 69.28801758 -38.49509277 68.03794922 -38.625 66.75 C-38.82283081 64.85556152 -38.82283081 64.85556152 -39.0246582 62.92285156 C-39.88791777 54.24226606 -40.40030155 45.71767826 -40 37 C-39.67 37 -39.34 37 -39 37 C-38.9498877 37.7113208 -38.89977539 38.4226416 -38.84814453 39.15551758 C-38.6161918 42.37524236 -38.37075823 45.5938008 -38.125 48.8125 C-38.04636719 49.93205078 -37.96773437 51.05160156 -37.88671875 52.20507812 C-37.80292969 53.27822266 -37.71914062 54.35136719 -37.6328125 55.45703125 C-37.55949707 56.44678955 -37.48618164 57.43654785 -37.41064453 58.45629883 C-37.14243901 61.23592961 -37.14243901 61.23592961 -35 64 C-34.83984375 66.15625 -34.83984375 66.15625 -34.9375 68.5 C-35.05183243 71.48258506 -34.96483093 73.10550722 -34 76 C-33.01 76.33 -32.02 76.66 -31 77 C-32.32 77 -33.64 77 -35 77 C-35 77.99 -35 78.98 -35 80 C-31.37 80 -27.74 80 -24 80 C-24 73.4 -24 66.8 -24 60 C-23.67 60 -23.34 60 -23 60 C-22.93268677 59.0553186 -22.93268677 59.0553186 -22.86401367 58.09155273 C-22.6511654 55.20577551 -22.41948607 52.32179929 -22.1875 49.4375 C-22.11724609 48.44685547 -22.04699219 47.45621094 -21.97460938 46.43554688 C-21.49629235 40.67660991 -20.59554632 36.23915831 -18 31 C-17.30954421 29.39074738 -16.62928484 27.77709729 -15.95703125 26.16015625 C-15.60576172 25.32548828 -15.25449219 24.49082031 -14.89257812 23.63085938 C-14.53615234 22.78330078 -14.17972656 21.93574219 -13.8125 21.0625 C-13.44447266 20.18787109 -13.07644531 19.31324219 -12.69726562 18.41210938 C-11.79797151 16.27482597 -10.89888761 14.1374544 -10 12 C-9.34 12 -8.68 12 -8 12 C-7.67 8.37 -7.34 4.74 -7 1 C-2 0 -2 0 0 0 Z " fill="#8A8989" transform="translate(177,12)"/>
<path d="M0 0 C5.00841167 3.10521524 9.12583431 6.74477028 13.375 10.8125 C14.71139156 12.07641808 16.04862132 13.33945054 17.38671875 14.6015625 C18.01755371 15.19743164 18.64838867 15.79330078 19.29833984 16.40722656 C21.80150416 18.75021709 24.38217122 20.99446108 26.98046875 23.23046875 C29.69486193 25.6088442 32.34572387 28.05508905 35 30.5 C38.30022784 33.53894492 41.60949474 36.56156211 45 39.5 C48.9308925 42.9067735 52.75196573 46.43002785 56.578125 49.953125 C59.35494057 52.50555143 62.14980717 55.02983288 65 57.5 C68.92188039 60.898963 72.73450205 64.41378862 76.55175781 67.92895508 C80.64204853 71.68885603 84.79147922 75.37324533 89 79 C88.505 80.98 88.505 80.98 88 83 C84.57231339 82.41236963 82.87409603 81.2684111 80.390625 78.8671875 C79.71773438 78.22523438 79.04484375 77.58328125 78.3515625 76.921875 C77.65804687 76.24640625 76.96453125 75.5709375 76.25 74.875 C74.88150877 73.55854266 73.51171823 72.24343463 72.140625 70.9296875 C71.4595166 70.27661621 70.7784082 69.62354492 70.07666016 68.95068359 C66.79964281 65.87246015 63.39835153 62.94258784 60 60 C58.37103946 58.54609193 56.74541821 57.08842268 55.125 55.625 C54.28195313 54.86445313 53.43890625 54.10390625 52.5703125 53.3203125 C51.72210938 52.55460937 50.87390625 51.78890625 50 51 C48.33359149 49.49971321 46.66692647 47.99971128 45 46.5 C15 19.5 15 19.5 12.53125 17.26953125 C10.77162174 15.69183986 8.99982583 14.12765708 7.21875 12.57421875 C6.3215625 11.78660156 5.424375 10.99898437 4.5 10.1875 C3.27796875 9.12595703 3.27796875 9.12595703 2.03125 8.04296875 C0.0929573 6.09349359 -0.95792866 4.52022688 -2 2 C-1.34 1.34 -0.68 0.68 0 0 Z " fill="#FFFFFF" transform="translate(25,208)"/>
<path d="M0 0 C5.53028069 3.97602473 10.57976258 8.233085 15.5 12.9375 C16.81686188 14.18188595 18.13456048 15.42538708 19.453125 16.66796875 C20.07123047 17.2511084 20.68933594 17.83424805 21.32617188 18.43505859 C23.84368202 20.78879839 26.43540297 23.04873821 29.046875 25.296875 C31.56612276 27.49365905 34.03102996 29.74689619 36.5 32 C39.61907011 34.84524228 42.74755391 37.6719958 45.9375 40.4375 C47.29313333 41.6233254 48.64708474 42.81107447 50 44 C50.49773926 44.43521973 50.99547852 44.87043945 51.50830078 45.31884766 C53.18019355 46.7871283 54.84079125 48.26741122 56.5 49.75 C57.04132568 50.22236084 57.58265137 50.69472168 58.14038086 51.18139648 C59.485067 52.39267521 60.74978225 53.69143875 62 55 C62 55.99 62 56.98 62 58 C60.234375 58.71875 60.234375 58.71875 58 59 C56.140625 57.59375 56.140625 57.59375 54.25 55.5 C51.67163028 52.75574253 49.11077368 50.13703747 46.25 47.6875 C42.76921841 44.6932056 39.37576353 41.6115642 36 38.5 C32.06736057 34.87887487 28.09785425 31.31040587 24.05859375 27.80859375 C21.5104335 25.5698875 19.00589407 23.28589788 16.5 21 C10.46732134 15.50207402 4.43510014 10.02742198 -2 5 C-1.125 1.125 -1.125 1.125 0 0 Z " fill="#FFFFFF" transform="translate(27,232)"/>
<path d="M0 0 C0.66 0.33 1.32 0.66 2 1 C2.40729228 3.32156597 2.74438677 5.6568787 3 8 C5.64 8 8.28 8 11 8 C11 10.31 11 12.62 11 15 C10.01 15.33 9.02 15.66 8 16 C8.020625 17.299375 8.04125 18.59875 8.0625 19.9375 C8.08399454 21.29165633 8.07148199 22.64756083 8 24 C6.49549533 25.50450467 4.8670547 25.63631195 2.8125 26.125 C2.05582031 26.31320313 1.29914063 26.50140625 0.51953125 26.6953125 C-2.4996635 27.06042442 -5.03457322 26.60939306 -8 26 C-8.16798051 23.72926348 -8.33434113 21.45840707 -8.5 19.1875 C-8.5928125 17.92292969 -8.685625 16.65835938 -8.78125 15.35546875 C-8.9424145 12.88332051 -9 10.47440126 -9 8 C-6.69 8 -4.38 8 -2 8 C-1.34 5.36 -0.68 2.72 0 0 Z " fill="#554F4F" transform="translate(173,40)"/>
<path d="M0 0 C5.2190029 3.21106876 9.4656261 7.07530166 13.875 11.3125 C18.53463002 15.76114485 23.23541038 20.12508078 28.10302734 24.34594727 C30.90368955 26.78796611 33.6416462 29.29568461 36.375 31.8125 C36.89449219 32.28880859 37.41398437 32.76511719 37.94921875 33.25585938 C40.00022472 35.139923 42.03045874 37.03045874 44 39 C43.34 39.99 42.68 40.98 42 42 C38.18437605 40.70176525 35.92909121 39.25033142 33.1875 36.3125 C29.96626787 32.96482698 26.6433295 29.8702799 23.125 26.83984375 C19.90608533 24.05287902 16.75405168 21.19289387 13.59375 18.33984375 C11.8260654 16.74520056 10.05509127 15.15419808 8.28125 13.56640625 C7.4046875 12.78136719 6.528125 11.99632812 5.625 11.1875 C4.83351563 10.47980469 4.04203125 9.77210938 3.2265625 9.04296875 C1.09036975 7.08291821 -0.96654725 5.06595086 -3 3 C-2.01 2.01 -1.02 1.02 0 0 Z " fill="#FFFFFF" transform="translate(23,256)"/>
<path d="M0 0 C4.3103361 0.47208443 6.77141797 3.25603584 9.75 6.125 C10.82747539 7.13871175 11.90560005 8.15173383 12.984375 9.1640625 C13.50451172 9.65551758 14.02464844 10.14697266 14.56054688 10.65332031 C16.3358211 12.31417727 18.15813091 13.91351612 20 15.5 C24.07511762 19.02489077 28.0244537 22.6832744 31.96484375 26.35742188 C34.76290569 28.98217364 34.76290569 28.98217364 38 31 C37.34 32.32 36.68 33.64 36 35 C31.4245321 33.75214512 29.04160586 31.2276278 25.8671875 27.91015625 C24.08408529 26.0860203 22.24488576 24.41377612 20.3125 22.75 C16.22232896 19.22702065 12.25425884 15.58122702 8.30004883 11.90722656 C5.29823828 9.13355961 2.22154925 6.51481084 -1 4 C-0.67 2.68 -0.34 1.36 0 0 Z " fill="#FFFFFF" transform="translate(11,276)"/>
<path d="M0 0 C0.6875 1.5625 0.6875 1.5625 1 4 C0.52127441 5.03833984 0.04254883 6.07667969 -0.45068359 7.14648438 C-2.20915684 11.085178 -2.45692263 14.82210779 -2.4765625 19.09375 C-2.49993179 20.21928284 -2.49993179 20.21928284 -2.52377319 21.36755371 C-2.57091091 23.74502574 -2.59890763 26.12221235 -2.625 28.5 C-2.6617194 30.87758131 -2.70255315 33.25500926 -2.74765015 35.63244629 C-2.7744682 37.10492926 -2.79599002 38.57752215 -2.81118774 40.0501709 C-2.87804876 44.46496664 -3.29333012 48.65366126 -4 53 C-7.06581069 54.0219369 -9.34800074 54.1986365 -12.5625 54.25 C-13.53316406 54.27578125 -14.50382813 54.3015625 -15.50390625 54.328125 C-16.32761719 54.21984375 -17.15132812 54.1115625 -18 54 C-20.20350487 50.69474269 -20.42916433 49.00252738 -20.8515625 45.109375 C-20.98071045 43.93084961 -21.1098584 42.75232422 -21.24291992 41.53808594 C-21.36900635 40.28801758 -21.49509277 39.03794922 -21.625 37.75 C-21.75688721 36.48704102 -21.88877441 35.22408203 -22.0246582 33.92285156 C-22.88791777 25.24226606 -23.40030155 16.71767826 -23 8 C-22.67 8 -22.34 8 -22 8 C-21.9498877 8.7113208 -21.89977539 9.4226416 -21.84814453 10.15551758 C-21.6161918 13.37524236 -21.37075823 16.5938008 -21.125 19.8125 C-21.04636719 20.93205078 -20.96773437 22.05160156 -20.88671875 23.20507812 C-20.80292969 24.27822266 -20.71914062 25.35136719 -20.6328125 26.45703125 C-20.52283936 27.9416687 -20.52283936 27.9416687 -20.41064453 29.45629883 C-20.14243901 32.23592961 -20.14243901 32.23592961 -18 35 C-17.83984375 37.15625 -17.83984375 37.15625 -17.9375 39.5 C-18.05183243 42.48258506 -17.96483093 44.10550722 -17 47 C-16.01 47.33 -15.02 47.66 -14 48 C-15.32 48 -16.64 48 -18 48 C-18 48.99 -18 49.98 -18 51 C-14.37 51 -10.74 51 -7 51 C-7 44.4 -7 37.8 -7 31 C-6.67 31 -6.34 31 -6 31 C-5.95512451 30.3702124 -5.91024902 29.7404248 -5.86401367 29.09155273 C-5.6511654 26.20577551 -5.41948607 23.32179929 -5.1875 20.4375 C-5.11724609 19.44685547 -5.04699219 18.45621094 -4.97460938 17.43554688 C-4.49464854 11.6568184 -3.64482246 7.17163447 -1 2 C-0.67 1.34 -0.34 0.68 0 0 Z " fill="#595959" transform="translate(160,41)"/>
<path d="M0 0 C3.37062835 2.66102238 4.33728125 6.19030381 5.625 10.125 C6.76282792 14.38971037 6.76282792 14.38971037 9 18 C9.13542809 20.71370469 9.21056807 23.40556436 9.24609375 26.12109375 C9.27902796 27.79492719 9.31223968 29.46875518 9.34570312 31.14257812 C9.39318011 33.79366349 9.43760684 36.44472609 9.47680664 39.09594727 C9.51642134 41.64623234 9.56798868 44.19605902 9.62109375 46.74609375 C9.6295079 47.54196396 9.63792206 48.33783417 9.64659119 49.15782166 C9.57850222 53.54679483 9.57850222 53.54679483 12 57 C16.13997567 57.1971417 19.07703567 57.30765478 23 56 C22.67 56.99 22.34 57.98 22 59 C20.04233719 59.08082094 18.08373272 59.13910778 16.125 59.1875 C14.48917969 59.23970703 14.48917969 59.23970703 12.8203125 59.29296875 C11.88960937 59.19628906 10.95890625 59.09960938 10 59 C7.84710562 55.77065843 7.66738374 54.50447574 7.41015625 50.734375 C7.33684082 49.66509766 7.26352539 48.59582031 7.18798828 47.49414062 C6.8609166 41.41485499 6.63122467 35.33486025 6.4375 29.25 C6.39431641 27.96867187 6.35113281 26.68734375 6.30664062 25.3671875 C6.20178666 22.24486934 6.09961982 19.12248879 6 16 C5.34 16 4.68 16 4 16 C3.8453125 16.9590625 3.8453125 16.9590625 3.6875 17.9375 C3.460625 18.618125 3.23375 19.29875 3 20 C2.01 20.33 1.02 20.66 0 21 C0 23.97 0 26.94 0 30 C-1.98 30 -3.96 30 -6 30 C-5.0409375 29.7525 -5.0409375 29.7525 -4.0625 29.5 C-1.8328496 28.22621522 -1.8328496 28.22621522 -1.58203125 26.12109375 C-1.51371094 25.40050781 -1.44539062 24.67992188 -1.375 23.9375 C-1.189375 21.9884375 -1.189375 21.9884375 -1 20 C-0.34 19.67 0.32 19.34 1 19 C1 17.02 1 15.04 1 13 C-1.31 12.67 -3.62 12.34 -6 12 C-6 11.67 -6 11.34 -6 11 C-3.03 11 -0.06 11 3 11 C2.7834375 10.37351562 2.566875 9.74703125 2.34375 9.1015625 C2.0653125 8.28429688 1.786875 7.46703125 1.5 6.625 C1.2215625 5.81289063 0.943125 5.00078125 0.65625 4.1640625 C0 2 0 2 0 0 Z " fill="#757171" transform="translate(182,36)"/>
<path d="M0 0 C2.81351786 1.28895717 4.9325707 2.66268505 7.171875 4.79296875 C7.75050293 5.33800049 8.32913086 5.88303223 8.92529297 6.44458008 C9.52744629 7.01974365 10.12959961 7.59490723 10.75 8.1875 C11.99658141 9.36284355 13.24397294 10.53732849 14.4921875 11.7109375 C15.09256836 12.27651367 15.69294922 12.84208984 16.31152344 13.42480469 C19.46659754 16.36820233 22.71926916 19.1981336 26 22 C24.68 23.32 23.36 24.64 22 26 C21.5875 25.57589844 21.175 25.15179688 20.75 24.71484375 C17.01204987 20.91848815 13.16621145 17.32354518 9.1328125 13.84375 C6.73567047 11.77149536 4.36665177 9.66948778 2 7.5625 C1.236875 6.88316406 0.47375 6.20382812 -0.3125 5.50390625 C-0.869375 5.00761719 -1.42625 4.51132812 -2 4 C-1.34 2.68 -0.68 1.36 0 0 Z " fill="#FFFFFF" transform="translate(2,296)"/>
<path d="M0 0 C0.66 0.33 1.32 0.66 2 1 C2.40729228 3.32156597 2.74438677 5.6568787 3 8 C5.64 8 8.28 8 11 8 C10.154375 8.845625 9.30875 9.69125 8.4375 10.5625 C6.00572884 13.42461268 5.9910727 13.81550241 6.1875 17.875 C6.455625 18.90625 6.72375 19.9375 7 21 C6.278125 20.46375 5.55625 19.9275 4.8125 19.375 C2.08699916 17.64457249 2.08699916 17.64457249 -0.625 18.8125 C-1.40875 19.204375 -2.1925 19.59625 -3 20 C-3.99 20 -4.98 20 -6 20 C-5.7525 18.7625 -5.505 17.525 -5.25 16.25 C-4.90427779 14.07896977 -4.90427779 14.07896977 -5 12 C-6.77154652 9.47409152 -6.77154652 9.47409152 -9 8 C-6.69 8 -4.38 8 -2 8 C-1.34 5.36 -0.68 2.72 0 0 Z " fill="#F20404" transform="translate(173,40)"/>
<path d="M0 0 C0.33 0 0.66 0 1 0 C1.0501123 0.7113208 1.10022461 1.4226416 1.15185547 2.15551758 C1.3838082 5.37524236 1.62924177 8.5938008 1.875 11.8125 C1.95363281 12.93205078 2.03226563 14.05160156 2.11328125 15.20507812 C2.19707031 16.27822266 2.28085938 17.35136719 2.3671875 18.45703125 C2.47716064 19.9416687 2.47716064 19.9416687 2.58935547 21.45629883 C2.85756099 24.23592961 2.85756099 24.23592961 5 27 C5.16015625 29.15625 5.16015625 29.15625 5.0625 31.5 C4.94816757 34.48258506 5.03516907 36.10550722 6 39 C6.99 39.33 7.98 39.66 9 40 C7.68 40 6.36 40 5 40 C5 40.99 5 41.98 5 43 C4.34 43 3.68 43 3 43 C-0.58165209 12.66709003 -0.58165209 12.66709003 0 0 Z " fill="#595959" transform="translate(137,49)"/>
<path d="M0 0 C0.6875 1.5625 0.6875 1.5625 1 4 C0.52127441 5.03833984 0.04254883 6.07667969 -0.45068359 7.14648438 C-2.20915684 11.085178 -2.45692263 14.82210779 -2.4765625 19.09375 C-2.49214203 19.84410522 -2.50772156 20.59446045 -2.52377319 21.36755371 C-2.57091091 23.74502574 -2.59890763 26.12221235 -2.625 28.5 C-2.6617194 30.87758131 -2.70255315 33.25500926 -2.74765015 35.63244629 C-2.7744682 37.10492926 -2.79599002 38.57752215 -2.81118774 40.0501709 C-2.87804876 44.46496664 -3.29333012 48.65366126 -4 53 C-4.66 52.67 -5.32 52.34 -6 52 C-5.75902588 50.27342163 -5.75902588 50.27342163 -5.51318359 48.51196289 C-4.98391539 44.26622024 -4.83349919 40.08306615 -4.7890625 35.80859375 C-4.76101433 34.27147335 -4.73235003 32.7343641 -4.703125 31.19726562 C-4.66184742 28.81225667 -4.62488949 26.42746082 -4.59863281 24.04223633 C-4.57088366 21.71393924 -4.52505059 19.38653941 -4.4765625 17.05859375 C-4.47330963 16.35423691 -4.47005676 15.64988007 -4.46670532 14.92417908 C-4.3226116 9.05851342 -2.57983233 5.15966466 0 0 Z " fill="#797979" transform="translate(160,41)"/>
<path d="M0 0 C2.0625 0.4375 2.0625 0.4375 4 1 C3.48041715 5.37934119 2.94324258 9.68803391 2 14 C6.455 13.505 6.455 13.505 11 13 C7.7868736 15.14208427 5.78934603 15.59687808 2 16 C1.34 15.67 0.68 15.34 0 15 C-0.44921875 11.875 -0.44921875 11.875 -0.6875 8 C-0.77386719 6.72125 -0.86023438 5.4425 -0.94921875 4.125 C-0.96597656 3.09375 -0.98273438 2.0625 -1 1 C-0.67 0.67 -0.34 0.34 0 0 Z " fill="#7A7A7A" transform="translate(165,51)"/>
<path d="M0 0 C4.14146341 5.52195122 4.14146341 5.52195122 4.125 10 C4.12757813 10.70125 4.13015625 11.4025 4.1328125 12.125 C4 14 4 14 3 16 C2.77141886 18.0374763 2.58975722 20.08040303 2.4375 22.125 C2.35371094 23.22070312 2.26992187 24.31640625 2.18359375 25.4453125 C2.12300781 26.28835937 2.06242188 27.13140625 2 28 C1.67 28 1.34 28 1 28 C0.67 18.76 0.34 9.52 0 0 Z " fill="#6E6E6E" transform="translate(207,42)"/>
<path d="M0 0 C3.63 0 7.26 0 11 0 C11 1.32 11 2.64 11 4 C9.54176788 4.0270043 8.08339325 4.04639787 6.625 4.0625 C5.81289062 4.07410156 5.00078125 4.08570312 4.1640625 4.09765625 C2 4 2 4 0 3 C0 2.01 0 1.02 0 0 Z " fill="#242424" transform="translate(142,89)"/>
<path d="M0 0 C2 0.875 2 0.875 4 2 C4.66 2.33 5.32 2.66 6 3 C6 3.99 6 4.98 6 6 C2.7 5.67 -0.6 5.34 -4 5 C-2 1 -2 1 0 0 Z " fill="#252020" transform="translate(173,57)"/>
<path d="M0 0 C0.33 0 0.66 0 1 0 C1.20705288 5.07279555 0.77935998 9.22382322 -1 14 C-1.99 14.66 -2.98 15.32 -4 16 C-3.27275406 10.47293087 -1.66554027 5.30039859 0 0 Z " fill="#2D2D2D" transform="translate(168,12)"/>
<path d="M0 0 C0 0.99 0 1.98 0 3 C-1 4 -1 4 -3.50390625 4.09765625 C-5.01791016 4.08025391 -5.01791016 4.08025391 -6.5625 4.0625 C-7.57441406 4.05347656 -8.58632812 4.04445313 -9.62890625 4.03515625 C-10.41136719 4.02355469 -11.19382813 4.01195313 -12 4 C-12.33 3.01 -12.66 2.02 -13 1 C-11.71802734 1.01740234 -11.71802734 1.01740234 -10.41015625 1.03515625 C-8.75306641 1.04869141 -8.75306641 1.04869141 -7.0625 1.0625 C-5.40927734 1.07990234 -5.40927734 1.07990234 -3.72265625 1.09765625 C-1.08552366 1.31262571 -1.08552366 1.31262571 0 0 Z " fill="#656565" transform="translate(154,91)"/>
<path d="M0 0 C3.3 0 6.6 0 10 0 C10 0.99 10 1.98 10 3 C7.03 3 4.06 3 1 3 C0.67 2.01 0.34 1.02 0 0 Z " fill="#1C1C1C" transform="translate(193,89)"/>
<path d="M0 0 C1.98 0.495 1.98 0.495 4 1 C3.67 3.64 3.34 6.28 3 9 C0.9375 7.3125 0.9375 7.3125 -1 5 C-0.75 2.25 -0.75 2.25 0 0 Z " fill="#4B3E3E" transform="translate(165,51)"/>
<path d="M0 0 C0.66 0.66 1.32 1.32 2 2 C1.625 4.625 1.625 4.625 1 7 C-0.32 7.33 -1.64 7.66 -3 8 C-3.75 6.25 -3.75 6.25 -4 4 C-2.0625 1.75 -2.0625 1.75 0 0 Z " fill="#4B4141" transform="translate(182,49)"/>
<path d="M0 0 C0.66 0 1.32 0 2 0 C2.69937202 1.4317616 3.38412718 2.87067032 4.0625 4.3125 C4.63677734 5.51326172 4.63677734 5.51326172 5.22265625 6.73828125 C6 9 6 9 5 12 C2.54792359 9.54792359 1.39341806 7.16685923 0 4 C0 2.68 0 1.36 0 0 Z " fill="#2D2D2D" transform="translate(186,39)"/>
<path d="M0 0 C0.66 0 1.32 0 2 0 C1.44894091 3.9492568 0.61064629 7.34920174 -1 11 C-1.66 11 -2.32 11 -3 11 C-2.44894091 7.0507432 -1.61064629 3.65079826 0 0 Z " fill="#2E2E2E" transform="translate(158,39)"/>
<path d="M0 0 C0.93045933 2.55144824 1.08564091 3.74006478 0.22265625 6.359375 C-0.16019531 7.14828125 -0.54304687 7.9371875 -0.9375 8.75 C-1.50791016 9.94882812 -1.50791016 9.94882812 -2.08984375 11.171875 C-2.39019531 11.77515625 -2.69054687 12.3784375 -3 13 C-4.66598857 7.95760794 -2.27200378 4.54400756 0 0 Z " fill="#636363" transform="translate(160,41)"/>
<path d="M0 0 C2.52259061 1.97420135 2.9929808 2.96745642 3.6875 6.1875 C3.790625 7.115625 3.89375 8.04375 4 9 C3.01 8.34 2.02 7.68 1 7 C0.3125 3.375 0.3125 3.375 0 0 Z " fill="#777777" transform="translate(182,36)"/>
</svg>
