<svg width="47" height="54" viewBox="0 0 47 54" fill="none" xmlns="http://www.w3.org/2000/svg">
<g filter="url(#filter0_dddddddd_2212_139)">
<path d="M23.7202 17.2334L25.137 22.2719H29.7219L26.0127 25.3859L27.4295 30.4245L23.7202 27.3105L20.011 30.4245L21.4278 25.3859L17.7185 22.2719H22.3034L23.7202 17.2334Z" fill="#FF0000"/>
<mask id="path-2-inside-1_2212_139" fill="white">
<path d="M40.2277 15.6544C36.7167 8.58576 24.6582 0 24.6582 0L33.3058 22.3286L34.2008 45.9643L40.1332 45.99L42.5071 22.3684C42.5071 22.3684 42.4384 20.1055 40.2277 15.6544Z"/>
</mask>
<path d="M40.2277 15.6544C36.7167 8.58576 24.6582 0 24.6582 0L33.3058 22.3286L34.2008 45.9643L40.1332 45.99L42.5071 22.3684C42.5071 22.3684 42.4384 20.1055 40.2277 15.6544Z" fill="#FF0000"/>
<path d="M24.6582 0L47.832 -32.5752L-60.7872 -109.913L-12.6396 14.4067L24.6582 0ZM40.2277 15.6544L4.40778 33.4133L4.40778 33.4133L40.2277 15.6544ZM42.5071 22.3684L82.3065 26.4162L82.5678 23.8162L82.4885 21.2039L42.5071 22.3684ZM40.1332 45.99L40.0086 85.9899L76.3037 86.1471L79.9326 50.0378L40.1332 45.99ZM34.2008 45.9643L-5.77041 47.4293L-4.3176 85.7979L34.0762 85.9642L34.2008 45.9643ZM33.3058 22.3286L73.277 20.8636L73.0235 14.1702L70.6036 7.92185L33.3058 22.3286ZM24.6582 0C1.4844 32.5752 1.48043 32.5723 1.47651 32.5695C1.47526 32.5686 1.47138 32.5659 1.46888 32.5641C1.46387 32.5605 1.45903 32.5571 1.45436 32.5537C1.44501 32.5471 1.43633 32.5409 1.42831 32.5351C1.41226 32.5237 1.39882 32.514 1.38792 32.5062C1.36613 32.4906 1.35439 32.4821 1.35214 32.4804C1.34778 32.4773 1.38053 32.501 1.44584 32.5492C1.5781 32.6469 1.83222 32.8365 2.17346 33.1001C2.88326 33.6482 3.82339 34.4028 4.76658 35.2304C5.76905 36.1099 6.3874 36.7333 6.63926 37.0123C7.15877 37.5877 5.85766 36.3324 4.40778 33.4133L76.0475 -2.10442C70.4473 -13.3795 61.0101 -21.7855 57.4861 -24.8774C54.9758 -27.0799 52.6818 -28.9135 51.0209 -30.1961C50.1768 -30.848 49.4615 -31.3843 48.9206 -31.7837C48.6493 -31.9841 48.4195 -32.1518 48.2368 -32.2841C48.1454 -32.3504 48.0655 -32.4079 47.9979 -32.4565C47.9641 -32.4808 47.9333 -32.5029 47.9056 -32.5226C47.8918 -32.5325 47.8787 -32.5419 47.8664 -32.5506C47.8603 -32.555 47.8544 -32.5592 47.8486 -32.5633C47.8458 -32.5654 47.8416 -32.5683 47.8402 -32.5693C47.8361 -32.5723 47.832 -32.5752 24.6582 0ZM4.40778 33.4133C4.37945 33.3563 3.94657 32.4686 3.49937 30.759C3.27689 29.9084 3.05575 28.8728 2.87883 27.6567C2.79054 27.0497 2.71379 26.4015 2.65331 25.7126C2.62308 25.3683 2.59697 25.0143 2.57551 24.6509C2.56478 24.4691 2.55522 24.2851 2.54689 24.0988C2.54273 24.0056 2.53888 23.9118 2.53534 23.8175C2.53357 23.7704 2.53188 23.7231 2.53027 23.6757C2.52947 23.6519 2.52868 23.6282 2.52792 23.6044C2.52754 23.5925 2.52697 23.5746 2.52679 23.5687C2.52623 23.5508 2.52569 23.5329 42.5071 22.3684C82.4885 21.2039 82.488 21.186 82.4874 21.1681C82.4872 21.1621 82.4867 21.1442 82.4863 21.1322C82.4855 21.1083 82.4847 21.0843 82.4839 21.0603C82.4823 21.0123 82.4806 20.9642 82.4788 20.916C82.4751 20.8194 82.4711 20.7224 82.4668 20.6248C82.4581 20.4296 82.4478 20.2323 82.4361 20.0329C82.4125 19.6341 82.3828 19.2272 82.3464 18.8124C82.2735 17.9823 82.1741 17.1225 82.0448 16.2339C81.786 14.4544 81.4095 12.5748 80.8935 10.6022C79.8593 6.64828 78.2867 2.40365 76.0475 -2.10442L4.40778 33.4133ZM2.70772 18.3206L0.333793 41.9423L79.9326 50.0378L82.3065 26.4162L2.70772 18.3206ZM40.2578 5.99022L34.3253 5.96453L34.0762 85.9642L40.0086 85.9899L40.2578 5.99022ZM74.1719 44.4994L73.277 20.8636L-6.66537 23.7935L-5.77041 47.4293L74.1719 44.4994ZM70.6036 7.92185L61.956 -14.4067L-12.6396 14.4067L-3.992 36.7353L70.6036 7.92185Z" fill="url(#paint0_linear_2212_139)" mask="url(#path-2-inside-1_2212_139)"/>
<mask id="path-4-inside-2_2212_139" fill="white">
<path d="M6.34876 15.6544C9.8597 8.58576 21.9182 0 21.9182 0L13.2706 22.3286L12.3757 45.9643L6.44324 45.99L4.06931 22.3684C4.06931 22.3684 4.13797 20.1055 6.34876 15.6544Z"/>
</mask>
<path d="M6.34876 15.6544C9.8597 8.58576 21.9182 0 21.9182 0L13.2706 22.3286L12.3757 45.9643L6.44324 45.99L4.06931 22.3684C4.06931 22.3684 4.13797 20.1055 6.34876 15.6544Z" fill="#FF0000"/>
<path d="M21.9182 0L-1.25559 -32.5752L107.364 -109.913L59.216 14.4067L21.9182 0ZM6.34876 15.6544L42.1686 33.4133L42.1686 33.4133L6.34876 15.6544ZM4.06931 22.3684L-35.7301 26.4162L-35.9914 23.8162L-35.9121 21.2039L4.06931 22.3684ZM6.44324 45.99L6.56781 85.9899L-29.7272 86.1471L-33.3562 50.0378L6.44324 45.99ZM12.3757 45.9643L52.3468 47.4293L50.894 85.7979L12.5002 85.9642L12.3757 45.9643ZM13.2706 22.3286L-26.7006 20.8636L-26.4471 14.1702L-24.0272 7.92185L13.2706 22.3286ZM21.9182 0C45.092 32.5752 45.096 32.5723 45.0999 32.5695C45.1012 32.5686 45.105 32.5659 45.1075 32.5641C45.1125 32.5605 45.1174 32.5571 45.1221 32.5537C45.1314 32.5471 45.1401 32.5409 45.1481 32.5351C45.1642 32.5237 45.1776 32.514 45.1885 32.5062C45.2103 32.4906 45.222 32.4821 45.2243 32.4804C45.2286 32.4773 45.1959 32.501 45.1306 32.5492C44.9983 32.6469 44.7442 32.8365 44.403 33.1001C43.6932 33.6482 42.753 34.4028 41.8098 35.2304C40.8074 36.1099 40.189 36.7333 39.9372 37.0123C39.4176 37.5877 40.7188 36.3324 42.1686 33.4133L-29.4711 -2.10442C-23.8709 -13.3795 -14.4337 -21.7855 -10.9097 -24.8774C-8.39935 -27.0799 -6.10542 -28.9135 -4.44453 -30.1961C-3.60043 -30.848 -2.88505 -31.3843 -2.34415 -31.7837C-2.07287 -31.9841 -1.84312 -32.1518 -1.66041 -32.2841C-1.56898 -32.3504 -1.48911 -32.4079 -1.42147 -32.4565C-1.38765 -32.4808 -1.35686 -32.5029 -1.32919 -32.5226C-1.31535 -32.5325 -1.3023 -32.5419 -1.29003 -32.5506C-1.28389 -32.555 -1.27796 -32.5592 -1.27222 -32.5633C-1.26935 -32.5654 -1.26519 -32.5683 -1.26375 -32.5693C-1.25965 -32.5723 -1.25559 -32.5752 21.9182 0ZM42.1686 33.4133C42.197 33.3563 42.6298 32.4686 43.077 30.759C43.2995 29.9084 43.5207 28.8728 43.6976 27.6567C43.7859 27.0497 43.8626 26.4015 43.9231 25.7126C43.9533 25.3683 43.9794 25.0143 44.0009 24.6509C44.0116 24.4691 44.0212 24.2851 44.0295 24.0988C44.0337 24.0056 44.0375 23.9118 44.0411 23.8175C44.0428 23.7704 44.0445 23.7231 44.0461 23.6757C44.0469 23.6519 44.0477 23.6282 44.0485 23.6044C44.0489 23.5925 44.0494 23.5746 44.0496 23.5687C44.0502 23.5508 44.0507 23.5329 4.06931 22.3684C-35.9121 21.2039 -35.9116 21.186 -35.911 21.1681C-35.9108 21.1621 -35.9102 21.1442 -35.9099 21.1322C-35.9091 21.1083 -35.9083 21.0843 -35.9075 21.0603C-35.9059 21.0123 -35.9041 20.9642 -35.9023 20.916C-35.8987 20.8194 -35.8947 20.7224 -35.8904 20.6248C-35.8816 20.4296 -35.8714 20.2323 -35.8597 20.0329C-35.8361 19.6341 -35.8064 19.2272 -35.7699 18.8124C-35.6971 17.9823 -35.5977 17.1225 -35.4684 16.2339C-35.2095 14.4544 -34.8331 12.5748 -34.3171 10.6022C-33.2828 6.64828 -31.7102 2.40365 -29.4711 -2.10442L42.1686 33.4133ZM43.8687 18.3206L46.2426 41.9423L-33.3562 50.0378L-35.7301 26.4162L43.8687 18.3206ZM6.31866 5.99022L12.2511 5.96453L12.5002 85.9642L6.56781 85.9899L6.31866 5.99022ZM-27.5955 44.4994L-26.7006 20.8636L53.2418 23.7935L52.3468 47.4293L-27.5955 44.4994ZM-24.0272 7.92185L-15.3796 -14.4067L59.216 14.4067L50.5684 36.7353L-24.0272 7.92185Z" fill="url(#paint1_linear_2212_139)" mask="url(#path-4-inside-2_2212_139)"/>
</g>
<defs>
<filter id="filter0_dddddddd_2212_139" x="0.0693359" y="0" width="46.4377" height="53.9902" filterUnits="userSpaceOnUse" color-interpolation-filters="sRGB">
<feFlood flood-opacity="0" result="BackgroundImageFix"/>
<feColorMatrix in="SourceAlpha" type="matrix" values="0 0 0 0 0 0 0 0 0 0 0 0 0 0 0 0 0 0 127 0" result="hardAlpha"/>
<feOffset dy="4"/>
<feGaussianBlur stdDeviation="2"/>
<feComposite in2="hardAlpha" operator="out"/>
<feColorMatrix type="matrix" values="0 0 0 0 0 0 0 0 0 0 0 0 0 0 0 0 0 0 0.25 0"/>
<feBlend mode="normal" in2="BackgroundImageFix" result="effect1_dropShadow_2212_139"/>
<feColorMatrix in="SourceAlpha" type="matrix" values="0 0 0 0 0 0 0 0 0 0 0 0 0 0 0 0 0 0 127 0" result="hardAlpha"/>
<feOffset dy="4"/>
<feGaussianBlur stdDeviation="2"/>
<feComposite in2="hardAlpha" operator="out"/>
<feColorMatrix type="matrix" values="0 0 0 0 0 0 0 0 0 0 0 0 0 0 0 0 0 0 0.25 0"/>
<feBlend mode="normal" in2="effect1_dropShadow_2212_139" result="effect2_dropShadow_2212_139"/>
<feColorMatrix in="SourceAlpha" type="matrix" values="0 0 0 0 0 0 0 0 0 0 0 0 0 0 0 0 0 0 127 0" result="hardAlpha"/>
<feOffset dy="4"/>
<feGaussianBlur stdDeviation="2"/>
<feComposite in2="hardAlpha" operator="out"/>
<feColorMatrix type="matrix" values="0 0 0 0 0 0 0 0 0 0 0 0 0 0 0 0 0 0 0.25 0"/>
<feBlend mode="normal" in2="effect2_dropShadow_2212_139" result="effect3_dropShadow_2212_139"/>
<feColorMatrix in="SourceAlpha" type="matrix" values="0 0 0 0 0 0 0 0 0 0 0 0 0 0 0 0 0 0 127 0" result="hardAlpha"/>
<feOffset dy="4"/>
<feGaussianBlur stdDeviation="2"/>
<feComposite in2="hardAlpha" operator="out"/>
<feColorMatrix type="matrix" values="0 0 0 0 0 0 0 0 0 0 0 0 0 0 0 0 0 0 0.25 0"/>
<feBlend mode="normal" in2="effect3_dropShadow_2212_139" result="effect4_dropShadow_2212_139"/>
<feColorMatrix in="SourceAlpha" type="matrix" values="0 0 0 0 0 0 0 0 0 0 0 0 0 0 0 0 0 0 127 0" result="hardAlpha"/>
<feOffset dy="4"/>
<feGaussianBlur stdDeviation="2"/>
<feComposite in2="hardAlpha" operator="out"/>
<feColorMatrix type="matrix" values="0 0 0 0 0 0 0 0 0 0 0 0 0 0 0 0 0 0 0.25 0"/>
<feBlend mode="normal" in2="effect4_dropShadow_2212_139" result="effect5_dropShadow_2212_139"/>
<feColorMatrix in="SourceAlpha" type="matrix" values="0 0 0 0 0 0 0 0 0 0 0 0 0 0 0 0 0 0 127 0" result="hardAlpha"/>
<feOffset dy="4"/>
<feGaussianBlur stdDeviation="2"/>
<feComposite in2="hardAlpha" operator="out"/>
<feColorMatrix type="matrix" values="0 0 0 0 0 0 0 0 0 0 0 0 0 0 0 0 0 0 0.25 0"/>
<feBlend mode="normal" in2="effect5_dropShadow_2212_139" result="effect6_dropShadow_2212_139"/>
<feColorMatrix in="SourceAlpha" type="matrix" values="0 0 0 0 0 0 0 0 0 0 0 0 0 0 0 0 0 0 127 0" result="hardAlpha"/>
<feOffset dy="4"/>
<feGaussianBlur stdDeviation="2"/>
<feComposite in2="hardAlpha" operator="out"/>
<feColorMatrix type="matrix" values="0 0 0 0 0 0 0 0 0 0 0 0 0 0 0 0 0 0 0.25 0"/>
<feBlend mode="normal" in2="effect6_dropShadow_2212_139" result="effect7_dropShadow_2212_139"/>
<feColorMatrix in="SourceAlpha" type="matrix" values="0 0 0 0 0 0 0 0 0 0 0 0 0 0 0 0 0 0 127 0" result="hardAlpha"/>
<feOffset dy="4"/>
<feGaussianBlur stdDeviation="2"/>
<feComposite in2="hardAlpha" operator="out"/>
<feColorMatrix type="matrix" values="0 0 0 0 0 0 0 0 0 0 0 0 0 0 0 0 0 0 0.25 0"/>
<feBlend mode="normal" in2="effect7_dropShadow_2212_139" result="effect8_dropShadow_2212_139"/>
<feBlend mode="normal" in="SourceGraphic" in2="effect8_dropShadow_2212_139" result="shape"/>
</filter>
<linearGradient id="paint0_linear_2212_139" x1="33.6174" y1="0.0388039" x2="33.4185" y2="45.961" gradientUnits="userSpaceOnUse">
<stop/>
<stop offset="1" stop-color="#7A7A7A"/>
</linearGradient>
<linearGradient id="paint1_linear_2212_139" x1="12.9591" y1="0.0388039" x2="13.1579" y2="45.961" gradientUnits="userSpaceOnUse">
<stop/>
<stop offset="1" stop-color="#7A7A7A"/>
</linearGradient>
</defs>
</svg>
