<svg width="58" height="64" viewBox="0 0 58 64" fill="none" xmlns="http://www.w3.org/2000/svg">
<g filter="url(#filter0_dddddddd_2212_139)">
<path d="M29.7785 20.98L31.5666 27.1139H37.3531L32.6718 30.9048L34.4599 37.0387L29.7785 33.2477L25.0972 37.0387L26.8853 30.9048L22.204 27.1139H27.9904L29.7785 20.98Z" fill="#FF0000"/>
<mask id="path-2-inside-1_2212_139" fill="white">
<path d="M50.6121 19.0576C46.1811 10.4522 30.9624 0 30.9624 0L41.8763 27.1826L43.0058 55.9566L50.4929 55.9879L53.4889 27.2311C53.4889 27.2311 53.4023 24.4762 50.6121 19.0576Z"/>
</mask>
<path d="M50.6121 19.0576C46.1811 10.4522 30.9624 0 30.9624 0L41.8763 27.1826L43.0058 55.9566L50.4929 55.9879L53.4889 27.2311C53.4889 27.2311 53.4023 24.4762 50.6121 19.0576Z" fill="#FF0000"/>
<path d="M30.9624 0L53.5865 -32.9657L-55.4223 -107.833L-6.15528 14.8735L30.9624 0ZM50.6121 19.0576L15.0536 37.3428L50.6121 19.0576ZM53.4889 27.2311L93.2735 31.4135L93.5542 28.7193L93.469 26.0114L53.4889 27.2311ZM50.4929 55.9879L50.3637 95.9877L86.53 96.1388L90.2774 60.1703L50.4929 55.9879ZM43.0058 55.9566L3.03668 57.4877L4.54045 95.7962L42.8766 95.9564L43.0058 55.9566ZM41.8763 27.1826L81.8453 25.6515L81.5738 18.7347L78.9939 12.3091L41.8763 27.1826ZM30.9624 0C8.33829 32.9657 8.33434 32.963 8.33045 32.9603C8.32923 32.9595 8.32538 32.9568 8.32293 32.9551C8.31802 32.9518 8.31333 32.9485 8.30886 32.9455C8.2999 32.9393 8.29181 32.9337 8.28455 32.9287C8.27004 32.9187 8.25889 32.911 8.251 32.9055C8.23524 32.8946 8.23245 32.8926 8.24189 32.8992C8.26091 32.9125 8.32801 32.9595 8.43734 33.0374C8.65767 33.1944 9.03838 33.4688 9.5342 33.8381C10.5538 34.5976 11.9133 35.6494 13.302 36.8247C14.7526 38.0523 15.8324 39.0758 16.4815 39.7692C17.4191 40.7709 16.3821 39.9229 15.0536 37.3428L86.1706 0.772401C79.9488 -11.3107 69.3139 -20.5272 64.9492 -24.2211C61.9793 -26.7346 59.2573 -28.8336 57.2849 -30.3029C56.2847 -31.0479 55.4419 -31.6573 54.8126 -32.1056C54.4972 -32.3303 54.233 -32.5162 54.0269 -32.6603C53.9238 -32.7323 53.835 -32.794 53.7614 -32.845C53.7246 -32.8705 53.6915 -32.8934 53.6624 -32.9135C53.6478 -32.9236 53.6341 -32.9329 53.6215 -32.9416C53.6152 -32.946 53.6091 -32.9502 53.6033 -32.9542C53.6004 -32.9562 53.5962 -32.9591 53.5947 -32.9601C53.5906 -32.9629 53.5865 -32.9657 30.9624 0ZM15.0536 37.3428C15.2573 37.7385 14.9117 37.1593 14.4919 35.6111C14.2831 34.8412 14.0613 33.8508 13.8793 32.6445C13.7886 32.0426 13.7083 31.3909 13.6446 30.6902C13.6127 30.34 13.585 29.9781 13.5621 29.6046C13.5507 29.4179 13.5405 29.2284 13.5316 29.0361C13.5271 28.9399 13.523 28.843 13.5192 28.7455C13.5173 28.6967 13.5155 28.6478 13.5138 28.5987C13.5129 28.5741 13.512 28.5495 13.5112 28.5248C13.5108 28.5125 13.5102 28.494 13.51 28.4878C13.5094 28.4693 13.5088 28.4508 53.4889 27.2311C93.469 26.0114 93.4684 25.9929 93.4678 25.9743C93.4676 25.9681 93.467 25.9495 93.4666 25.9371C93.4658 25.9123 93.4649 25.8874 93.464 25.8625C93.4623 25.8128 93.4604 25.7628 93.4585 25.7127C93.4546 25.6124 93.4503 25.5115 93.4456 25.41C93.4362 25.2069 93.4251 25.0012 93.4124 24.793C93.3869 24.3766 93.3546 23.9502 93.3149 23.5141C93.2355 22.6415 93.1267 21.7323 92.9842 20.7875C92.6989 18.8953 92.2809 16.8775 91.7017 14.7416C90.5411 10.4613 88.757 5.7953 86.1706 0.772401L15.0536 37.3428ZM13.7044 23.0487L10.7083 51.8055L90.2774 60.1703L93.2735 31.4135L13.7044 23.0487ZM50.622 15.9881L43.1349 15.9568L42.8766 95.9564L50.3637 95.9877L50.622 15.9881ZM82.9748 54.4255L81.8453 25.6515L1.90718 28.7137L3.03668 57.4877L82.9748 54.4255ZM78.9939 12.3091L68.0801 -14.8735L-6.15528 14.8735L4.75857 42.0561L78.9939 12.3091Z" fill="url(#paint0_linear_2212_139)" mask="url(#path-2-inside-1_2212_139)"/>
<mask id="path-4-inside-2_2212_139" fill="white">
<path d="M7.8547 19.0576C12.2857 10.4522 27.5044 0 27.5044 0L16.5905 27.1826L15.461 55.9566L7.97393 55.9879L4.97788 27.2311C4.97788 27.2311 5.06454 24.4762 7.8547 19.0576Z"/>
</mask>
<path d="M7.8547 19.0576C12.2857 10.4522 27.5044 0 27.5044 0L16.5905 27.1826L15.461 55.9566L7.97393 55.9879L4.97788 27.2311C4.97788 27.2311 5.06454 24.4762 7.8547 19.0576Z" fill="#FF0000"/>
<path d="M27.5044 0L4.88028 -32.9657L113.889 -107.833L64.6221 14.8735L27.5044 0ZM7.8547 19.0576L43.4132 37.3428L7.8547 19.0576ZM4.97788 27.2311L-34.8067 31.4135L-35.0874 28.7193L-35.0022 26.0114L4.97788 27.2311ZM7.97393 55.9879L8.10308 95.9877L-28.0632 96.1388L-31.8106 60.1703L7.97393 55.9879ZM15.461 55.9566L55.4301 57.4877L53.9263 95.7962L15.5902 95.9564L15.461 55.9566ZM16.5905 27.1826L-23.3785 25.6515L-23.107 18.7347L-20.5271 12.3091L16.5905 27.1826ZM27.5044 0C50.1285 32.9657 50.1325 32.963 50.1363 32.9603C50.1376 32.9595 50.1414 32.9568 50.1439 32.9551C50.1488 32.9518 50.1535 32.9485 50.1579 32.9455C50.1669 32.9393 50.175 32.9337 50.1822 32.9287C50.1968 32.9187 50.2079 32.911 50.2158 32.9055C50.2316 32.8946 50.2343 32.8926 50.2249 32.8992C50.2059 32.9125 50.1388 32.9595 50.0295 33.0374C49.8091 33.1944 49.4284 33.4688 48.9326 33.8381C47.913 34.5976 46.5535 35.6494 45.1648 36.8247C43.7142 38.0523 42.6344 39.0758 41.9853 39.7692C41.0477 40.7709 42.0847 39.9229 43.4132 37.3428L-27.7038 0.772401C-21.482 -11.3107 -10.8471 -20.5272 -6.48238 -24.2211C-3.51254 -26.7346 -0.790498 -28.8336 1.1819 -30.3029C2.18206 -31.0479 3.02492 -31.6573 3.65417 -32.1056C3.96963 -32.3303 4.23382 -32.5162 4.43989 -32.6603C4.543 -32.7323 4.63179 -32.794 4.70541 -32.845C4.74222 -32.8705 4.77527 -32.8934 4.80445 -32.9135C4.81903 -32.9236 4.83266 -32.9329 4.8453 -32.9416C4.85162 -32.946 4.8577 -32.9502 4.86353 -32.9542C4.86644 -32.9562 4.87064 -32.9591 4.87209 -32.9601C4.87622 -32.9629 4.88028 -32.9657 27.5044 0ZM43.4132 37.3428C43.2095 37.7385 43.5551 37.1593 43.9749 35.6111C44.1837 34.8412 44.4055 33.8508 44.5875 32.6445C44.6782 32.0426 44.7585 31.3909 44.8222 30.6902C44.8541 30.34 44.8818 29.9781 44.9047 29.6046C44.9161 29.4179 44.9263 29.2284 44.9352 29.0361C44.9397 28.9399 44.9438 28.843 44.9476 28.7455C44.9495 28.6967 44.9513 28.6478 44.953 28.5987C44.9539 28.5741 44.9547 28.5495 44.9556 28.5248C44.956 28.5125 44.9566 28.494 44.9568 28.4878C44.9574 28.4693 44.958 28.4508 4.97788 27.2311C-35.0022 26.0114 -35.0016 25.9929 -35.001 25.9743C-35.0008 25.9681 -35.0002 25.9495 -34.9998 25.9371C-34.999 25.9123 -34.9981 25.8874 -34.9972 25.8625C-34.9955 25.8128 -34.9936 25.7628 -34.9917 25.7127C-34.9878 25.6124 -34.9835 25.5115 -34.9788 25.41C-34.9694 25.2069 -34.9584 25.0012 -34.9456 24.793C-34.9201 24.3766 -34.8878 23.9502 -34.8481 23.5141C-34.7687 22.6415 -34.6599 21.7323 -34.5174 20.7875C-34.2321 18.8953 -33.8141 16.8775 -33.2349 14.7416C-32.0743 10.4613 -30.2902 5.7953 -27.7038 0.772401L43.4132 37.3428ZM44.7624 23.0487L47.7585 51.8055L-31.8106 60.1703L-34.8067 31.4135L44.7624 23.0487ZM7.84479 15.9881L15.3319 15.9568L15.5902 95.9564L8.10308 95.9877L7.84479 15.9881ZM-24.508 54.4255L-23.3785 25.6515L56.5596 28.7137L55.4301 57.4877L-24.508 54.4255ZM-20.5271 12.3091L-9.61329 -14.8735L64.6221 14.8735L53.7082 42.0561L-20.5271 12.3091Z" fill="url(#paint1_linear_2212_139)" mask="url(#path-4-inside-2_2212_139)"/>
</g>
<defs>
<filter id="filter0_dddddddd_2212_139" x="0.977783" y="0" width="56.5112" height="63.9878" filterUnits="userSpaceOnUse" color-interpolation-filters="sRGB">
<feFlood flood-opacity="0" result="BackgroundImageFix"/>
<feColorMatrix in="SourceAlpha" type="matrix" values="0 0 0 0 0 0 0 0 0 0 0 0 0 0 0 0 0 0 127 0" result="hardAlpha"/>
<feOffset dy="4"/>
<feGaussianBlur stdDeviation="2"/>
<feComposite in2="hardAlpha" operator="out"/>
<feColorMatrix type="matrix" values="0 0 0 0 0 0 0 0 0 0 0 0 0 0 0 0 0 0 0.25 0"/>
<feBlend mode="normal" in2="BackgroundImageFix" result="effect1_dropShadow_2212_139"/>
<feColorMatrix in="SourceAlpha" type="matrix" values="0 0 0 0 0 0 0 0 0 0 0 0 0 0 0 0 0 0 127 0" result="hardAlpha"/>
<feOffset dy="4"/>
<feGaussianBlur stdDeviation="2"/>
<feComposite in2="hardAlpha" operator="out"/>
<feColorMatrix type="matrix" values="0 0 0 0 0 0 0 0 0 0 0 0 0 0 0 0 0 0 0.25 0"/>
<feBlend mode="normal" in2="effect1_dropShadow_2212_139" result="effect2_dropShadow_2212_139"/>
<feColorMatrix in="SourceAlpha" type="matrix" values="0 0 0 0 0 0 0 0 0 0 0 0 0 0 0 0 0 0 127 0" result="hardAlpha"/>
<feOffset dy="4"/>
<feGaussianBlur stdDeviation="2"/>
<feComposite in2="hardAlpha" operator="out"/>
<feColorMatrix type="matrix" values="0 0 0 0 0 0 0 0 0 0 0 0 0 0 0 0 0 0 0.25 0"/>
<feBlend mode="normal" in2="effect2_dropShadow_2212_139" result="effect3_dropShadow_2212_139"/>
<feColorMatrix in="SourceAlpha" type="matrix" values="0 0 0 0 0 0 0 0 0 0 0 0 0 0 0 0 0 0 127 0" result="hardAlpha"/>
<feOffset dy="4"/>
<feGaussianBlur stdDeviation="2"/>
<feComposite in2="hardAlpha" operator="out"/>
<feColorMatrix type="matrix" values="0 0 0 0 0 0 0 0 0 0 0 0 0 0 0 0 0 0 0.25 0"/>
<feBlend mode="normal" in2="effect3_dropShadow_2212_139" result="effect4_dropShadow_2212_139"/>
<feColorMatrix in="SourceAlpha" type="matrix" values="0 0 0 0 0 0 0 0 0 0 0 0 0 0 0 0 0 0 127 0" result="hardAlpha"/>
<feOffset dy="4"/>
<feGaussianBlur stdDeviation="2"/>
<feComposite in2="hardAlpha" operator="out"/>
<feColorMatrix type="matrix" values="0 0 0 0 0 0 0 0 0 0 0 0 0 0 0 0 0 0 0.25 0"/>
<feBlend mode="normal" in2="effect4_dropShadow_2212_139" result="effect5_dropShadow_2212_139"/>
<feColorMatrix in="SourceAlpha" type="matrix" values="0 0 0 0 0 0 0 0 0 0 0 0 0 0 0 0 0 0 127 0" result="hardAlpha"/>
<feOffset dy="4"/>
<feGaussianBlur stdDeviation="2"/>
<feComposite in2="hardAlpha" operator="out"/>
<feColorMatrix type="matrix" values="0 0 0 0 0 0 0 0 0 0 0 0 0 0 0 0 0 0 0.25 0"/>
<feBlend mode="normal" in2="effect5_dropShadow_2212_139" result="effect6_dropShadow_2212_139"/>
<feColorMatrix in="SourceAlpha" type="matrix" values="0 0 0 0 0 0 0 0 0 0 0 0 0 0 0 0 0 0 127 0" result="hardAlpha"/>
<feOffset dy="4"/>
<feGaussianBlur stdDeviation="2"/>
<feComposite in2="hardAlpha" operator="out"/>
<feColorMatrix type="matrix" values="0 0 0 0 0 0 0 0 0 0 0 0 0 0 0 0 0 0 0.25 0"/>
<feBlend mode="normal" in2="effect6_dropShadow_2212_139" result="effect7_dropShadow_2212_139"/>
<feColorMatrix in="SourceAlpha" type="matrix" values="0 0 0 0 0 0 0 0 0 0 0 0 0 0 0 0 0 0 127 0" result="hardAlpha"/>
<feOffset dy="4"/>
<feGaussianBlur stdDeviation="2"/>
<feComposite in2="hardAlpha" operator="out"/>
<feColorMatrix type="matrix" values="0 0 0 0 0 0 0 0 0 0 0 0 0 0 0 0 0 0 0.25 0"/>
<feBlend mode="normal" in2="effect7_dropShadow_2212_139" result="effect8_dropShadow_2212_139"/>
<feBlend mode="normal" in="SourceGraphic" in2="effect8_dropShadow_2212_139" result="shape"/>
</filter>
<linearGradient id="paint0_linear_2212_139" x1="42.2695" y1="0.0472395" x2="42.0359" y2="55.9525" gradientUnits="userSpaceOnUse">
<stop/>
<stop offset="1" stop-color="#7A7A7A"/>
</linearGradient>
<linearGradient id="paint1_linear_2212_139" x1="16.1973" y1="0.0472395" x2="16.4309" y2="55.9525" gradientUnits="userSpaceOnUse">
<stop/>
<stop offset="1" stop-color="#7A7A7A"/>
</linearGradient>
</defs>
</svg>
