<svg width="316" height="345" viewBox="0 0 316 345" fill="none" xmlns="http://www.w3.org/2000/svg">
<rect width="119.013" height="3.83555" transform="matrix(0.743759 0.668448 -0.675546 0.737318 25.5947 208.5)" fill="white"/>
<rect width="119.013" height="3.83555" transform="matrix(0.743759 0.668448 -0.675546 0.737318 25.5947 208.5)" fill="white"/>
<rect width="119.013" height="3.83555" transform="matrix(0.743759 0.668448 -0.675546 0.737318 25.5947 208.5)" fill="white"/>
<rect width="83.1811" height="3.83555" transform="matrix(0.743759 0.668448 -0.675546 0.737318 27.6918 232.73)" fill="white"/>
<rect width="83.1811" height="3.83555" transform="matrix(0.743759 0.668448 -0.675546 0.737318 27.6918 232.73)" fill="white"/>
<rect width="83.1811" height="3.83555" transform="matrix(0.743759 0.668448 -0.675546 0.737318 27.6918 232.73)" fill="white"/>
<rect width="57.5869" height="3.83555" transform="matrix(0.743759 0.668448 -0.675546 0.737318 23.3905 256.368)" fill="white"/>
<rect width="57.5869" height="3.83555" transform="matrix(0.743759 0.668448 -0.675546 0.737318 23.3905 256.368)" fill="white"/>
<rect width="57.5869" height="3.83555" transform="matrix(0.743759 0.668448 -0.675546 0.737318 23.3905 256.368)" fill="white"/>
<rect width="48.6289" height="3.83555" transform="matrix(0.743759 0.668448 -0.675546 0.737318 12.515 275.815)" fill="white"/>
<rect width="48.6289" height="3.83555" transform="matrix(0.743759 0.668448 -0.675546 0.737318 12.515 275.815)" fill="white"/>
<rect width="48.6289" height="3.83555" transform="matrix(0.743759 0.668448 -0.675546 0.737318 12.515 275.815)" fill="white"/>
<rect width="33.2724" height="3.83555" transform="matrix(0.743759 0.668448 -0.675546 0.737318 2.59106 296.117)" fill="white"/>
<rect width="33.2724" height="3.83555" transform="matrix(0.743759 0.668448 -0.675546 0.737318 2.59106 296.117)" fill="white"/>
<rect width="33.2724" height="3.83555" transform="matrix(0.743759 0.668448 -0.675546 0.737318 2.59106 296.117)" fill="white"/>
<path d="M102 25.5L75.5 44L66.5 61L61 90.5L37.5 168L95.5 228.5L146.5 296L185.5 335L240 342.5L254 296L268 268L273 254.5L286 228.5L306.5 178.5L309 168L313.5 152V138L306.5 99L295 67L282 48.5L265.5 36L249 28.5L207 10.5L180 2H163L136.5 8L102 25.5Z" fill="#909090" stroke="black" stroke-width="4"/>
<path d="M95 227.5L98 182.5V153.5L95 120.5L108 106L138 100.5L185.5 120.5L246.5 148L289 157.5H313" stroke="black" stroke-width="4"/>
<path d="M248 29L273.5 63L281 135H273.5L248 63L219.5 16.5" stroke="black" stroke-width="4"/>
<path d="M186.5 334L198 305.5L204 286.5V269L200.5 250.5L195.5 228L181 206L164 195L139.5 180.5L118.5 172L115.5 123L96 120.5" stroke="black" stroke-width="4"/>
<path d="M184 138L175.5 122.5L201.5 133.5L245 153.5L262 157L289 162.5H305.5L303 173L255.5 165L228 157L184 138Z" fill="#909090" stroke="#B30000" stroke-width="7"/>
<path d="M195.855 137.415C199.361 138.503 203.006 139.236 206.444 140C209.512 140.682 204.511 140.455 199.378 139.451C200.19 139.905 201.008 140.349 201.833 140.778C204.126 141.97 206.702 142.261 209.028 143.278C209.222 143.363 209.415 143.446 209.609 143.528C209.956 143.529 210.517 143.611 211.104 143.726C209.615 142.273 213.289 143.515 214.056 143.778C214.205 143.829 217.314 145.011 216.889 145.389C216.362 145.857 213.045 144.208 212.5 144.056C212.086 143.94 211.586 143.822 211.104 143.726C211.232 143.852 211.4 143.998 211.611 144.167C211.733 144.264 211.855 144.36 211.978 144.455C212.38 144.601 212.782 144.742 213.185 144.878C213.723 144.941 214.247 145.034 214.722 145.25C216.027 145.843 217.786 145.752 219.222 146.222C221.284 146.898 223.319 147.497 225.444 147.945C225.666 147.991 223.276 147.635 222.722 147.5C219.44 146.703 216.3 145.931 213.185 144.878C212.936 144.849 212.684 144.827 212.433 144.803C219.081 149.792 225.926 151.215 233.675 153.237C232.478 152.9 231.313 152.499 230.111 152.111C228.45 151.575 227.166 151.671 225.528 150.75C224.351 150.088 223.208 149.493 222 148.889C220.497 148.137 225.834 150.311 226.722 150.472C229.88 151.047 233.382 151.773 235.985 153.79C236.833 153.996 237.303 154.218 236.111 153.889C236.798 154.438 238.691 154.762 239.611 155.111C241.689 155.899 244.052 156.88 245.972 158C246.459 158.284 247.007 158.602 247.579 158.902C247.684 158.935 247.789 158.968 247.892 159C248.972 159.08 250.026 159.222 251 159.611C253.526 160.622 257.531 161.5 260.25 161.5C263.195 161.5 265.996 162.5 269.028 162.5C272.93 162.5 276.947 165.127 280.75 165.972C283.027 166.478 285.603 166.19 287.944 166.611C289.588 166.907 291.087 167.675 292.722 167.972C293.217 168.062 293.708 168.008 294.178 168C294.272 167.999 294.366 167.999 294.458 168.003C296.299 168.05 297.988 168.702 299.778 169.028C303.771 169.754 296.461 169.069 295.611 168.389C295.255 168.104 294.866 168.02 294.458 168.003C294.389 168.001 294.32 168 294.25 168C294.226 168 294.201 168 294.178 168C293.708 168.008 293.217 168.062 292.722 167.972C291.087 167.675 289.588 166.907 287.944 166.611C285.603 166.19 283.027 166.478 280.75 165.972C276.947 165.127 272.93 162.5 269.028 162.5C265.996 162.5 263.195 161.5 260.25 161.5C257.531 161.5 253.526 160.622 251 159.611C250.026 159.222 248.972 159.08 247.892 159C250.247 159.742 251.838 160.325 250.25 159.972C249.445 159.793 248.575 159.415 247.747 158.99C245.947 158.865 244.079 158.886 242.389 158.195C238.374 156.552 234.419 155.699 230.222 154.5C226.633 153.475 237.454 156.363 241.111 157.111C242.576 157.411 245.356 158.209 247.579 158.902C247.007 158.602 246.459 158.284 245.972 158C244.052 156.88 241.689 155.899 239.611 155.111C238.691 154.762 236.798 154.438 236.111 153.889C235.617 153.753 235.126 153.62 234.64 153.491C234.315 153.412 233.994 153.327 233.675 153.237C225.926 151.215 219.081 149.792 212.433 144.803C211.765 144.738 211.1 144.656 210.5 144.389C209.045 143.742 209.033 143.525 209.609 143.528C209.415 143.446 209.222 143.363 209.028 143.278C206.702 142.261 204.126 141.97 201.833 140.778C201.008 140.349 200.19 139.905 199.378 139.451C196.346 138.859 193.268 137.996 191.778 136.889C191.736 136.858 191.692 136.827 191.647 136.797C190.882 136.593 190.184 136.333 189.611 136C189.528 135.952 189.413 135.886 189.272 135.806C188.966 135.685 188.597 135.547 188.187 135.396C186.64 134.898 185.007 134.379 183.909 133.646C182.656 133.025 181.612 132.335 181.25 131.611C181.213 131.538 183.782 132.119 185.766 132.581C184.59 132.152 183.934 131.749 183.222 130.611C182.11 128.831 186.938 132.235 188.888 133.353C192.532 134.374 199.635 136.65 199.51 137.314C199.581 137.339 199.652 137.364 199.722 137.389C201.37 137.969 202.992 138.522 204.667 139C204.988 139.092 203.996 138.997 203.667 138.945C202.566 138.768 201.593 138.149 200.5 138C199.252 137.83 197.992 137.655 196.737 137.461C196.449 137.45 196.154 137.434 195.855 137.415Z" fill="#909090"/>
<path d="M186.5 133C192.22 137.131 199.726 138.507 206.444 140C211.323 141.084 195.79 139.869 191.778 136.889C189.766 135.395 183.957 134.803 182.806 132.5C182.573 132.036 188.585 135.405 189.611 136C191.886 137.321 196.126 137.5 198.694 137.5C202.548 137.5 191.726 134.092 188 133.111C187.578 133 181.192 131.496 181.25 131.611C182.195 133.501 187.792 135.165 189.611 135.945C191.559 136.779 193.372 136.909 195.417 137.25C197.104 137.531 198.814 137.77 200.5 138C201.593 138.149 202.566 138.768 203.667 138.945C203.996 138.997 204.988 139.092 204.667 139C202.992 138.522 201.37 137.969 199.722 137.389C195.213 135.802 190.688 134.272 186.167 132.722C184.732 132.231 184.011 131.873 183.222 130.611C182.088 128.796 187.131 132.372 189 133.417C193.304 135.823 197.458 138.503 201.833 140.778C204.126 141.97 206.702 142.261 209.028 143.278C213.533 145.249 217.98 146.348 222.722 147.5C223.276 147.635 225.666 147.991 225.444 147.945C223.319 147.497 221.284 146.898 219.222 146.222C217.786 145.752 216.027 145.843 214.722 145.25C213.445 144.669 211.816 144.974 210.5 144.389C207.448 143.032 210.747 143.565 212.5 144.056C213.045 144.208 216.362 145.857 216.889 145.389C217.314 145.011 214.205 143.829 214.056 143.778C213.223 143.492 208.958 142.05 211.611 144.167C219.204 150.223 227.019 151.381 236.111 153.889C237.493 154.27 236.64 153.911 235.556 153.695C233.667 153.317 231.931 152.698 230.111 152.111C228.45 151.575 227.166 151.671 225.528 150.75C224.351 150.088 223.208 149.493 222 148.889C220.497 148.137 225.834 150.311 226.722 150.472C229.931 151.056 233.496 151.797 236.111 153.889C236.798 154.438 238.691 154.762 239.611 155.111C241.689 155.899 244.052 156.88 245.972 158C247.206 158.72 248.829 159.657 250.25 159.972C253.366 160.665 244.238 157.751 241.111 157.111C237.454 156.363 226.633 153.475 230.222 154.5C234.419 155.699 238.374 156.552 242.389 158.195C245.142 159.321 248.365 158.557 251 159.611C253.526 160.622 257.531 161.5 260.25 161.5C263.195 161.5 265.996 162.5 269.028 162.5C272.93 162.5 276.947 165.127 280.75 165.972C283.027 166.478 285.603 166.19 287.944 166.611C289.588 166.907 291.087 167.675 292.722 167.972C293.754 168.16 294.772 167.718 295.611 168.389C296.461 169.069 303.771 169.754 299.778 169.028C297.921 168.69 296.172 168 294.25 168C291.07 168 293.933 167.653 294.889 166.889C295.979 166.017 298.576 166.5 300 166.5" stroke="#B30000" stroke-width="3" stroke-linecap="round"/>
<path d="M296 167C293.87 166.787 292.252 166 290 166" stroke="#B30000" stroke-width="3" stroke-linecap="round"/>
<path d="M211.5 141.5C209.254 141.5 207.134 140.5 205 140.5" stroke="#B30000" stroke-width="3" stroke-linecap="round"/>
<g filter="url(#filter0_dddddddd_2212_158)">
<path d="M173.784 39.1323L176.355 47.795H184.674L177.944 53.1488L180.514 61.8115L173.784 56.4577L167.053 61.8115L169.624 53.1488L162.893 47.795H171.213L173.784 39.1323Z" fill="#FF0000"/>
<mask id="path-16-inside-1_2212_158" fill="white">
<path d="M203.734 36.4094C197.365 24.2575 175.486 9.5 175.486 9.5L191.172 47.8863L192.79 88.5225L203.555 88.5648L207.868 47.9519C207.868 47.9519 207.744 44.0613 203.734 36.4094Z"/>
</mask>
<path d="M175.486 9.5L197.843 -23.658L88.6319 -97.3225L138.46 24.6152L175.486 9.5ZM203.734 36.4094L168.307 54.9646L168.307 54.9646L203.734 36.4094ZM207.868 47.9519L247.645 52.196L247.936 49.4537L247.848 46.6972L207.868 47.9519ZM203.555 88.5648L203.418 128.565L239.518 128.706L243.331 92.809L203.555 88.5648ZM192.79 88.5225L152.822 90.0942L154.346 128.372L192.653 128.522L192.79 88.5225ZM191.172 47.8863L231.14 46.3146L230.861 39.2847L228.199 32.7711L191.172 47.8863ZM175.486 9.5C153.13 42.658 153.126 42.6554 153.122 42.6528C153.121 42.652 153.117 42.6495 153.115 42.6479C153.11 42.6447 153.106 42.6418 153.102 42.639C153.093 42.6335 153.087 42.6289 153.081 42.625C153.07 42.6174 153.063 42.6131 153.062 42.612C153.059 42.61 153.075 42.6209 153.109 42.6443C153.177 42.6912 153.317 42.7875 153.519 42.929C153.926 43.2133 154.574 43.6727 155.397 44.2748C157.071 45.4996 159.322 47.2086 161.662 49.1532C164.064 51.1503 166.149 53.0565 167.682 54.6651C169.514 56.5878 169.205 56.6775 168.307 54.9646L239.161 17.8542C231.891 3.98337 219.021 -7.172 212.782 -12.3577C208.856 -15.6215 205.239 -18.3613 202.612 -20.2833C201.284 -21.2546 200.174 -22.0431 199.358 -22.6133C198.95 -22.8991 198.613 -23.1317 198.358 -23.3069C198.231 -23.3945 198.123 -23.468 198.037 -23.5266C197.994 -23.556 197.956 -23.5816 197.923 -23.6036C197.907 -23.6145 197.892 -23.6245 197.879 -23.6336C197.872 -23.6382 197.866 -23.6425 197.86 -23.6465C197.857 -23.6486 197.853 -23.6515 197.851 -23.6525C197.847 -23.6553 197.843 -23.658 175.486 9.5ZM168.307 54.9646C169.092 56.4628 169.03 56.6983 168.747 55.6722C168.606 55.1633 168.416 54.3611 168.249 53.2702C168.166 52.7261 168.088 52.114 168.025 51.4349C167.994 51.0955 167.966 50.7399 167.943 50.3683C167.932 50.1825 167.921 49.9928 167.912 49.7991C167.908 49.7023 167.903 49.6045 167.9 49.5057C167.898 49.4563 167.896 49.4067 167.894 49.3568C167.893 49.3319 167.892 49.3069 167.891 49.2819C167.891 49.2693 167.89 49.2505 167.89 49.2442C167.889 49.2254 167.889 49.2065 207.868 47.9519C247.848 46.6972 247.847 46.6783 247.847 46.6594C247.847 46.6531 247.846 46.6341 247.846 46.6215C247.845 46.5962 247.844 46.5708 247.843 46.5454C247.841 46.4946 247.839 46.4436 247.837 46.3923C247.833 46.2897 247.829 46.1862 247.824 46.0818C247.814 45.8729 247.802 45.6604 247.789 45.4443C247.762 45.0119 247.728 44.5653 247.685 44.1046C247.6 43.1828 247.482 42.207 247.324 41.1785C247.008 39.119 246.536 36.866 245.864 34.428C244.516 29.5436 242.386 24.0079 239.161 17.8542L168.307 54.9646ZM168.092 43.7077L163.779 84.3206L243.331 92.809L247.645 52.196L168.092 43.7077ZM203.692 48.565L192.928 48.5228L192.653 128.522L203.418 128.565L203.692 48.565ZM232.758 86.9508L231.14 46.3146L151.204 49.458L152.822 90.0942L232.758 86.9508ZM228.199 32.7711L212.513 -5.61519L138.46 24.6152L154.146 63.0015L228.199 32.7711Z" fill="url(#paint0_linear_2212_158)" mask="url(#path-16-inside-1_2212_158)"/>
<mask id="path-18-inside-2_2212_158" fill="white">
<path d="M142.266 36.4094C148.635 24.2575 170.514 9.5 170.514 9.5L154.828 47.8863L153.21 88.5225L142.445 88.5648L138.132 47.9519C138.132 47.9519 138.256 44.0613 142.266 36.4094Z"/>
</mask>
<path d="M170.514 9.5L148.157 -23.658L257.368 -97.3225L207.54 24.6152L170.514 9.5ZM142.266 36.4094L177.693 54.9646L177.693 54.9646L142.266 36.4094ZM138.132 47.9519L98.3554 52.196L98.0642 49.4537L98.152 46.6972L138.132 47.9519ZM142.445 88.5648L142.583 128.565L106.482 128.706L102.669 92.809L142.445 88.5648ZM153.21 88.5225L193.178 90.0942L191.654 128.372L153.347 128.522L153.21 88.5225ZM154.828 47.8863L114.86 46.3146L115.14 39.2847L117.801 32.7711L154.828 47.8863ZM170.514 9.5C192.87 42.658 192.874 42.6554 192.878 42.6528C192.879 42.652 192.883 42.6495 192.885 42.6479C192.89 42.6447 192.894 42.6418 192.898 42.639C192.907 42.6335 192.914 42.6289 192.919 42.625C192.93 42.6174 192.937 42.6131 192.938 42.612C192.941 42.61 192.925 42.6209 192.891 42.6443C192.823 42.6912 192.683 42.7875 192.481 42.929C192.075 43.2133 191.426 43.6727 190.603 44.2748C188.929 45.4996 186.678 47.2086 184.339 49.1532C181.936 51.1503 179.851 53.0565 178.318 54.6651C176.486 56.5878 176.795 56.6775 177.693 54.9646L106.839 17.8542C114.109 3.98337 126.98 -7.172 133.218 -12.3577C137.144 -15.6215 140.761 -18.3613 143.388 -20.2833C144.716 -21.2546 145.827 -22.0431 146.642 -22.6133C147.05 -22.8991 147.387 -23.1317 147.642 -23.3069C147.77 -23.3945 147.877 -23.468 147.963 -23.5266C148.006 -23.556 148.044 -23.5816 148.077 -23.6036C148.093 -23.6145 148.108 -23.6245 148.121 -23.6336C148.128 -23.6382 148.134 -23.6425 148.14 -23.6465C148.143 -23.6486 148.148 -23.6515 148.149 -23.6525C148.153 -23.6553 148.157 -23.658 170.514 9.5ZM177.693 54.9646C176.908 56.4628 176.97 56.6983 177.254 55.6722C177.394 55.1633 177.584 54.3611 177.751 53.2702C177.835 52.7261 177.912 52.114 177.975 51.4349C178.006 51.0955 178.034 50.7399 178.057 50.3683C178.068 50.1825 178.079 49.9928 178.088 49.7991C178.092 49.7023 178.097 49.6045 178.101 49.5057C178.103 49.4563 178.104 49.4067 178.106 49.3568C178.107 49.3319 178.108 49.3069 178.109 49.2819C178.109 49.2693 178.11 49.2505 178.11 49.2442C178.111 49.2254 178.111 49.2065 138.132 47.9519C98.152 46.6972 98.1526 46.6783 98.1533 46.6594C98.1535 46.6531 98.1541 46.6341 98.1545 46.6215C98.1554 46.5962 98.1563 46.5708 98.1572 46.5454C98.159 46.4946 98.1609 46.4436 98.1629 46.3923C98.167 46.2897 98.1714 46.1862 98.1763 46.0818C98.1862 45.8729 98.1977 45.6604 98.2112 45.4443C98.238 45.0119 98.2724 44.5653 98.315 44.1046C98.4003 43.1828 98.5185 42.207 98.6763 41.1785C98.9922 39.119 99.4637 36.866 100.136 34.428C101.484 29.5436 103.614 24.0079 106.839 17.8542L177.693 54.9646ZM177.908 43.7077L182.221 84.3206L102.669 92.809L98.3554 52.196L177.908 43.7077ZM142.308 48.565L153.073 48.5228L153.347 128.522L142.583 128.565L142.308 48.565ZM113.242 86.9508L114.86 46.3146L194.796 49.458L193.178 90.0942L113.242 86.9508ZM117.801 32.7711L133.487 -5.61519L207.54 24.6152L191.855 63.0015L117.801 32.7711Z" fill="url(#paint1_linear_2212_158)" mask="url(#path-18-inside-2_2212_158)"/>
</g>
<defs>
<filter id="filter0_dddddddd_2212_158" x="134.132" y="9.5" width="77.7367" height="87.0649" filterUnits="userSpaceOnUse" color-interpolation-filters="sRGB">
<feFlood flood-opacity="0" result="BackgroundImageFix"/>
<feColorMatrix in="SourceAlpha" type="matrix" values="0 0 0 0 0 0 0 0 0 0 0 0 0 0 0 0 0 0 127 0" result="hardAlpha"/>
<feOffset dy="4"/>
<feGaussianBlur stdDeviation="2"/>
<feComposite in2="hardAlpha" operator="out"/>
<feColorMatrix type="matrix" values="0 0 0 0 0 0 0 0 0 0 0 0 0 0 0 0 0 0 0.25 0"/>
<feBlend mode="normal" in2="BackgroundImageFix" result="effect1_dropShadow_2212_158"/>
<feColorMatrix in="SourceAlpha" type="matrix" values="0 0 0 0 0 0 0 0 0 0 0 0 0 0 0 0 0 0 127 0" result="hardAlpha"/>
<feOffset dy="4"/>
<feGaussianBlur stdDeviation="2"/>
<feComposite in2="hardAlpha" operator="out"/>
<feColorMatrix type="matrix" values="0 0 0 0 0 0 0 0 0 0 0 0 0 0 0 0 0 0 0.25 0"/>
<feBlend mode="normal" in2="effect1_dropShadow_2212_158" result="effect2_dropShadow_2212_158"/>
<feColorMatrix in="SourceAlpha" type="matrix" values="0 0 0 0 0 0 0 0 0 0 0 0 0 0 0 0 0 0 127 0" result="hardAlpha"/>
<feOffset dy="4"/>
<feGaussianBlur stdDeviation="2"/>
<feComposite in2="hardAlpha" operator="out"/>
<feColorMatrix type="matrix" values="0 0 0 0 0 0 0 0 0 0 0 0 0 0 0 0 0 0 0.25 0"/>
<feBlend mode="normal" in2="effect2_dropShadow_2212_158" result="effect3_dropShadow_2212_158"/>
<feColorMatrix in="SourceAlpha" type="matrix" values="0 0 0 0 0 0 0 0 0 0 0 0 0 0 0 0 0 0 127 0" result="hardAlpha"/>
<feOffset dy="4"/>
<feGaussianBlur stdDeviation="2"/>
<feComposite in2="hardAlpha" operator="out"/>
<feColorMatrix type="matrix" values="0 0 0 0 0 0 0 0 0 0 0 0 0 0 0 0 0 0 0.25 0"/>
<feBlend mode="normal" in2="effect3_dropShadow_2212_158" result="effect4_dropShadow_2212_158"/>
<feColorMatrix in="SourceAlpha" type="matrix" values="0 0 0 0 0 0 0 0 0 0 0 0 0 0 0 0 0 0 127 0" result="hardAlpha"/>
<feOffset dy="4"/>
<feGaussianBlur stdDeviation="2"/>
<feComposite in2="hardAlpha" operator="out"/>
<feColorMatrix type="matrix" values="0 0 0 0 0 0 0 0 0 0 0 0 0 0 0 0 0 0 0.25 0"/>
<feBlend mode="normal" in2="effect4_dropShadow_2212_158" result="effect5_dropShadow_2212_158"/>
<feColorMatrix in="SourceAlpha" type="matrix" values="0 0 0 0 0 0 0 0 0 0 0 0 0 0 0 0 0 0 127 0" result="hardAlpha"/>
<feOffset dy="4"/>
<feGaussianBlur stdDeviation="2"/>
<feComposite in2="hardAlpha" operator="out"/>
<feColorMatrix type="matrix" values="0 0 0 0 0 0 0 0 0 0 0 0 0 0 0 0 0 0 0.25 0"/>
<feBlend mode="normal" in2="effect5_dropShadow_2212_158" result="effect6_dropShadow_2212_158"/>
<feColorMatrix in="SourceAlpha" type="matrix" values="0 0 0 0 0 0 0 0 0 0 0 0 0 0 0 0 0 0 127 0" result="hardAlpha"/>
<feOffset dy="4"/>
<feGaussianBlur stdDeviation="2"/>
<feComposite in2="hardAlpha" operator="out"/>
<feColorMatrix type="matrix" values="0 0 0 0 0 0 0 0 0 0 0 0 0 0 0 0 0 0 0.25 0"/>
<feBlend mode="normal" in2="effect6_dropShadow_2212_158" result="effect7_dropShadow_2212_158"/>
<feColorMatrix in="SourceAlpha" type="matrix" values="0 0 0 0 0 0 0 0 0 0 0 0 0 0 0 0 0 0 127 0" result="hardAlpha"/>
<feOffset dy="4"/>
<feGaussianBlur stdDeviation="2"/>
<feComposite in2="hardAlpha" operator="out"/>
<feColorMatrix type="matrix" values="0 0 0 0 0 0 0 0 0 0 0 0 0 0 0 0 0 0 0.25 0"/>
<feBlend mode="normal" in2="effect7_dropShadow_2212_158" result="effect8_dropShadow_2212_158"/>
<feBlend mode="normal" in="SourceGraphic" in2="effect8_dropShadow_2212_158" result="shape"/>
</filter>
<linearGradient id="paint0_linear_2212_158" x1="191.743" y1="9.56386" x2="191.433" y2="88.5172" gradientUnits="userSpaceOnUse">
<stop/>
<stop offset="1" stop-color="#7A7A7A"/>
</linearGradient>
<linearGradient id="paint1_linear_2212_158" x1="154.257" y1="9.56386" x2="154.567" y2="88.5172" gradientUnits="userSpaceOnUse">
<stop/>
<stop offset="1" stop-color="#7A7A7A"/>
</linearGradient>
</defs>
</svg>
