<svg width="123" height="187" viewBox="0 0 123 187" fill="none" xmlns="http://www.w3.org/2000/svg">
<path d="M60.5 72L64.878 84.4377H79.0456L67.5838 92.1246L71.9618 104.562L60.5 96.8754L49.0382 104.562L53.4162 92.1246L41.9544 84.4377H56.122L60.5 72Z" fill="#FF0000"/>
<path d="M109.098 71.0698C103.538 54.7682 84.3865 35 84.3865 35L98.0648 86.5035L99.4066 141.056L108.843 141.091L112.701 86.5577C112.701 86.5577 112.6 81.3346 109.098 71.0698Z" stroke="url(#paint0_linear_2231_7)" stroke-width="20"/>
<path d="M13.7903 71.0698C19.3506 54.7682 38.5022 35 38.5022 35L24.8239 86.5035L23.4821 141.056L14.0455 141.091L10.1876 86.5577C10.1876 86.5577 10.289 81.3346 13.7903 71.0698Z" stroke="url(#paint1_linear_2231_7)" stroke-width="20"/>
<path d="M15.24 179V156.12H34.408C36.776 156.12 38.6107 156.717 39.912 157.912C41.2347 159.107 41.896 160.92 41.896 163.352C41.896 165.784 41.2347 167.597 39.912 168.792C38.6107 169.987 36.776 170.584 34.408 170.584H20.36V179H15.24ZM33.8 160.28H20.36V166.392L33.8 166.424C34.7387 166.424 35.4533 166.189 35.944 165.72C36.456 165.251 36.712 164.461 36.712 163.352C36.712 162.221 36.456 161.432 35.944 160.984C35.4533 160.515 34.7387 160.28 33.8 160.28ZM45.0838 179V156.12H64.2518C66.6198 156.12 68.4544 156.717 69.7558 157.912C71.0784 159.107 71.7398 160.92 71.7398 163.352C71.7398 165.421 71.2598 167.043 70.2998 168.216C69.3398 169.389 67.9744 170.125 66.2038 170.424L71.4838 179H65.6598L60.7638 170.584H50.2038V179H45.0838ZM63.6438 160.28H50.2038V166.392L63.6438 166.424C64.5824 166.424 65.2971 166.189 65.7878 165.72C66.2998 165.251 66.5558 164.461 66.5558 163.352C66.5558 162.221 66.2998 161.432 65.7878 160.984C65.2971 160.515 64.5824 160.28 63.6438 160.28ZM87.1358 179.16C83.0611 179.16 79.9038 178.189 77.6638 176.248C75.4238 174.285 74.3038 171.384 74.3038 167.544C74.3038 163.725 75.4238 160.845 77.6638 158.904C79.9038 156.941 83.1358 155.96 87.3598 155.96H93.1198C97.3438 155.96 100.576 156.941 102.816 158.904C105.056 160.845 106.176 163.725 106.176 167.544C106.176 171.384 105.056 174.285 102.816 176.248C100.576 178.189 97.3971 179.16 93.2798 179.16H87.1358ZM87.7118 160.12C85.3438 160.12 83.4984 160.547 82.1758 161.4C80.8531 162.253 80.0211 163.608 79.6798 165.464H100.8C100.458 163.608 99.6264 162.253 98.3038 161.4C96.9811 160.547 95.1358 160.12 92.7678 160.12H87.7118ZM87.8078 175H92.7678C95.1571 175 97.0024 174.573 98.3038 173.72C99.6264 172.867 100.458 171.501 100.8 169.624H79.6798C80.0211 171.501 80.8531 172.867 82.1758 173.72C83.4984 174.573 85.3758 175 87.8078 175Z" fill="white"/>
<defs>
<linearGradient id="paint0_linear_2231_7" x1="98.6376" y1="35.0527" x2="98.2454" y2="141.052" gradientUnits="userSpaceOnUse">
<stop/>
<stop offset="1" stop-color="#7A7A7A"/>
</linearGradient>
<linearGradient id="paint1_linear_2231_7" x1="24.2511" y1="35.0527" x2="24.6433" y2="141.052" gradientUnits="userSpaceOnUse">
<stop/>
<stop offset="1" stop-color="#7A7A7A"/>
</linearGradient>
</defs>
</svg>
