<svg width="127" height="121" viewBox="0 0 127 121" fill="none" xmlns="http://www.w3.org/2000/svg">
<rect width="44.3558" height="1.40837" transform="matrix(0.792515 0.609852 -0.730628 0.682776 10.1644 72.9365)" fill="white"/>
<rect width="44.3558" height="1.40837" transform="matrix(0.792515 0.609852 -0.730628 0.682776 10.1644 72.9365)" fill="white"/>
<rect width="44.3558" height="1.40837" transform="matrix(0.792515 0.609852 -0.730628 0.682776 10.1644 72.9365)" fill="white"/>
<rect width="31.0014" height="1.40837" transform="matrix(0.792515 0.609852 -0.730628 0.682776 10.9972 81.1753)" fill="white"/>
<rect width="31.0014" height="1.40837" transform="matrix(0.792515 0.609852 -0.730628 0.682776 10.9972 81.1753)" fill="white"/>
<rect width="31.0014" height="1.40837" transform="matrix(0.792515 0.609852 -0.730628 0.682776 10.9972 81.1753)" fill="white"/>
<rect width="21.4625" height="1.40837" transform="matrix(0.792515 0.609852 -0.730628 0.682776 9.28906 89.2129)" fill="white"/>
<rect width="21.4625" height="1.40837" transform="matrix(0.792515 0.609852 -0.730628 0.682776 9.28906 89.2129)" fill="white"/>
<rect width="21.4625" height="1.40837" transform="matrix(0.792515 0.609852 -0.730628 0.682776 9.28906 89.2129)" fill="white"/>
<rect width="18.1239" height="1.40837" transform="matrix(0.792515 0.609852 -0.730628 0.682776 4.97009 95.8252)" fill="white"/>
<rect width="18.1239" height="1.40837" transform="matrix(0.792515 0.609852 -0.730628 0.682776 4.97009 95.8252)" fill="white"/>
<rect width="18.1239" height="1.40837" transform="matrix(0.792515 0.609852 -0.730628 0.682776 4.97009 95.8252)" fill="white"/>
<rect width="12.4006" height="1.40837" transform="matrix(0.792515 0.609852 -0.730628 0.682776 1.02905 102.729)" fill="white"/>
<rect width="12.4006" height="1.40837" transform="matrix(0.792515 0.609852 -0.730628 0.682776 1.02905 102.729)" fill="white"/>
<rect width="12.4006" height="1.40837" transform="matrix(0.792515 0.609852 -0.730628 0.682776 1.02905 102.729)" fill="white"/>
<path d="M40.5072 10.7113L29.9832 17.0019L26.4091 22.7823L24.2249 32.8131L14.8923 59.1652L37.9258 79.7369L58.1794 102.689L73.6675 115.95L95.311 118.5L100.871 102.689L106.431 93.168L108.416 88.5776L113.579 79.7369L121.72 62.7355L122.713 59.1652L124.5 53.7248V48.9644L121.72 35.7034L117.153 24.8225L111.99 18.532L105.438 14.2816L98.8852 11.7314L82.2057 5.61094L71.4832 2.7207H64.7321L54.2081 4.76087L40.5072 10.7113Z" fill="#909090" stroke="black" stroke-width="4"/>
<path d="M37.7273 79.3968L38.9187 64.0956V54.2348L37.7273 43.0139L42.89 38.0835L54.8039 36.2134L73.6675 43.0139L97.8924 52.3647L114.77 55.5949H124.301" stroke="black" stroke-width="4"/>
<path d="M98.4881 11.9012L108.615 23.4621L111.593 47.9441H108.615L98.4881 23.4621L87.1699 7.65088" stroke="black" stroke-width="4"/>
<path d="M74.0646 115.61L78.6316 105.919L81.0143 99.4587V93.5082L79.6244 87.2177L77.6387 79.5671L71.8804 72.0865L65.1292 68.3462L55.3995 63.4158L47.0598 60.5256L45.8684 43.8642L38.1244 43.0142" stroke="black" stroke-width="4"/>
<path d="M73.0718 48.9643L69.6962 43.6938L80.0215 47.4341L97.2966 54.2347L104.048 55.4248L114.77 57.2949H121.323L120.33 60.8652L101.467 58.145L90.5455 55.4248L73.0718 48.9643Z" fill="#909090" stroke="#B30000" stroke-width="7"/>
<path d="M77.7799 48.7657C79.1722 49.1356 80.6195 49.3849 81.9851 49.6447C83.2031 49.8765 81.2173 49.7993 79.1788 49.4582C79.5014 49.6124 79.8261 49.7632 80.1539 49.9092C81.0644 50.3146 82.0876 50.4134 83.011 50.7593C83.088 50.7881 83.165 50.8164 83.2419 50.8442C83.3797 50.8447 83.6023 50.8724 83.8354 50.9118C83.2443 50.4174 84.7034 50.8397 85.0077 50.9293C85.0672 50.9468 86.3017 51.3487 86.1329 51.4771C85.9236 51.6364 84.6062 51.0756 84.3899 51.0237C84.2256 50.9843 84.0269 50.9441 83.8354 50.9118C83.8865 50.9546 83.953 51.0042 84.0369 51.0615C84.0854 51.0946 84.1339 51.1273 84.1825 51.1596C84.3421 51.2093 84.5019 51.2571 84.6618 51.3034C84.8756 51.3246 85.0837 51.3564 85.2724 51.4299C85.7906 51.6315 86.4893 51.6005 87.0595 51.7605C87.8784 51.9901 88.6865 52.1939 89.5306 52.3461C89.6185 52.3619 88.6694 52.2407 88.4495 52.1949C87.1462 51.9239 85.8991 51.6614 84.6618 51.3034C84.563 51.2936 84.4631 51.2861 84.3632 51.2777C87.0032 52.9741 89.7219 53.458 92.7989 54.1456C92.3237 54.0311 91.8609 53.8946 91.3838 53.7628C90.724 53.5806 90.2141 53.6133 89.5636 53.3C89.0962 53.0749 88.6423 52.8725 88.1627 52.6672C87.5656 52.4116 89.6851 53.1507 90.038 53.2056C91.292 53.4008 92.6829 53.6479 93.7166 54.3337C94.0531 54.4038 94.2399 54.4791 93.7666 54.3673C94.0393 54.5541 94.7912 54.6643 95.1565 54.7829C95.9816 55.0509 96.9202 55.3844 97.6827 55.7652C97.8761 55.8618 98.0936 55.9699 98.3207 56.072C98.3626 56.0832 98.4041 56.0943 98.445 56.1053C98.8742 56.1326 99.2927 56.1806 99.6794 56.3131C100.683 56.6567 102.273 56.9553 103.353 56.9553C104.522 56.9553 105.635 57.2954 106.839 57.2954C108.388 57.2954 109.984 58.1886 111.494 58.476C112.398 58.648 113.421 58.5499 114.351 58.6932C115.004 58.7938 115.599 59.055 116.249 59.1561C116.445 59.1866 116.64 59.168 116.826 59.1655C116.864 59.165 116.901 59.1651 116.938 59.1664C117.669 59.1823 118.34 59.4043 119.05 59.515C120.636 59.7619 117.733 59.5289 117.396 59.2977C117.254 59.2008 117.1 59.1722 116.938 59.1664C116.91 59.1658 116.883 59.1655 116.855 59.1655C116.846 59.1655 116.836 59.1655 116.826 59.1655C116.64 59.168 116.445 59.1866 116.249 59.1561C115.599 59.055 115.004 58.7938 114.351 58.6932C113.421 58.5499 112.398 58.648 111.494 58.476C109.984 58.1886 108.388 57.2954 106.839 57.2954C105.635 57.2954 104.522 56.9553 103.353 56.9553C102.273 56.9553 100.683 56.6567 99.6794 56.3131C99.2927 56.1806 98.8742 56.1326 98.445 56.1053C99.3805 56.3575 100.012 56.5558 99.3816 56.4358C99.0618 56.375 98.7163 56.2464 98.3877 56.1018C97.6728 56.0593 96.931 56.0665 96.2597 55.8313C94.6654 55.2729 93.0944 54.9828 91.4279 54.5751C90.0027 54.2265 94.3 55.2086 95.7522 55.463C96.3338 55.5648 97.438 55.8363 98.3207 56.072C98.0936 55.9699 97.8761 55.8618 97.6827 55.7652C96.9202 55.3844 95.9816 55.0509 95.1565 54.7829C94.7912 54.6643 94.0393 54.5541 93.7666 54.3673C93.5703 54.321 93.3756 54.276 93.1822 54.232C93.0533 54.2051 92.9257 54.1761 92.7989 54.1456C89.7219 53.458 87.0032 52.9741 84.3632 51.2777C84.0982 51.2556 83.834 51.2278 83.5957 51.1371C83.0179 50.9172 83.0132 50.8433 83.2419 50.8442C83.165 50.8164 83.088 50.7881 83.011 50.7593C82.0876 50.4134 81.0644 50.3146 80.1539 49.9092C79.8261 49.7632 79.5014 49.6124 79.1788 49.4582C77.9747 49.2567 76.7521 48.9632 76.1605 48.5869C76.1438 48.5763 76.1265 48.5658 76.1085 48.5554C75.8049 48.4863 75.5277 48.3978 75.3001 48.2846C75.2673 48.2683 75.2216 48.2459 75.1653 48.2185C75.0438 48.1773 74.8973 48.1307 74.7346 48.0791C74.1203 47.9097 73.4715 47.7332 73.0357 47.4841C72.538 47.2731 72.1233 47.0383 71.9796 46.7923C71.965 46.7673 72.9851 46.965 73.773 47.1221C73.3062 46.9762 73.0454 46.8393 72.7629 46.4523C72.321 45.8469 74.2385 47.0045 75.0128 47.3846C76.4601 47.7318 79.2809 48.5055 79.2312 48.7315C79.2593 48.74 79.2874 48.7484 79.3155 48.7569C79.9697 48.954 80.614 49.142 81.2791 49.3047C81.4066 49.3359 81.0129 49.3038 80.882 49.2858C80.4448 49.2259 80.0583 49.0153 79.6244 48.9647C79.1289 48.9068 78.6282 48.8473 78.1298 48.7815C78.0156 48.7775 77.8986 48.7723 77.7799 48.7657Z" fill="#909090"/>
<path d="M74.0646 47.2645C76.3363 48.6693 79.3169 49.1371 81.9851 49.6447C83.9226 50.0134 77.7538 49.6002 76.1605 48.5869C75.3618 48.0788 73.0547 47.8776 72.5974 47.0945C72.5052 46.9367 74.8927 48.0821 75.3001 48.2846C76.2034 48.7337 77.8872 48.7947 78.9073 48.7947C80.4376 48.7947 76.1402 47.6358 74.6603 47.3023C74.4927 47.2646 71.9567 46.753 71.9796 46.7923C72.3548 47.4347 74.5777 48.0006 75.3001 48.2657C76.0737 48.5496 76.7935 48.5938 77.6056 48.7097C78.2758 48.8053 78.9549 48.8865 79.6244 48.9647C80.0583 49.0153 80.4448 49.2259 80.882 49.2858C81.0129 49.3038 81.4066 49.3359 81.2791 49.3047C80.614 49.142 79.9697 48.954 79.3155 48.7569C77.5248 48.2174 75.7279 47.6968 73.9322 47.1701C73.3624 47.003 73.076 46.8812 72.7629 46.4523C72.3122 45.8349 74.3153 47.051 75.0574 47.4062C76.7666 48.2244 78.4165 49.1357 80.1539 49.9092C81.0644 50.3146 82.0876 50.4134 83.011 50.7593C84.8001 51.4294 86.566 51.8033 88.4495 52.1949C88.6694 52.2407 89.6185 52.3619 89.5306 52.3461C88.6865 52.1939 87.8784 51.9901 87.0595 51.7605C86.4893 51.6005 85.7906 51.6315 85.2724 51.4299C84.7651 51.2324 84.1183 51.3359 83.5957 51.1371C82.3835 50.6758 83.6937 50.8568 84.3899 51.0237C84.6062 51.0756 85.9236 51.6364 86.1329 51.4771C86.3017 51.3487 85.0672 50.9468 85.0077 50.9293C84.6771 50.832 82.9831 50.3419 84.0369 51.0615C87.0523 53.1208 90.1557 53.5144 93.7666 54.3673C94.3155 54.497 93.9766 54.375 93.546 54.3012C92.7961 54.1728 92.1064 53.9624 91.3838 53.7628C90.724 53.5806 90.2141 53.6133 89.5636 53.3C89.0962 53.0749 88.6423 52.8725 88.1627 52.6672C87.5656 52.4116 89.6851 53.1506 90.038 53.2056C91.3123 53.404 92.728 53.6559 93.7666 54.3673C94.0393 54.5541 94.7912 54.6643 95.1566 54.7829C95.9816 55.0509 96.9202 55.3844 97.6827 55.7652C98.1728 56.01 98.8173 56.3285 99.3816 56.4358C100.619 56.6713 96.9942 55.6805 95.7522 55.463C94.3 55.2086 90.0027 54.2265 91.4279 54.5751C93.0944 54.9828 94.6654 55.2729 96.2597 55.8313C97.3529 56.2143 98.6329 55.9546 99.6794 56.3131C100.683 56.6567 102.273 56.9553 103.353 56.9553C104.522 56.9553 105.635 57.2954 106.839 57.2954C108.388 57.2954 109.984 58.1886 111.494 58.476C112.398 58.648 113.421 58.5499 114.351 58.6932C115.004 58.7938 115.599 59.055 116.249 59.1561C116.658 59.2199 117.063 59.0695 117.396 59.2977C117.733 59.5289 120.636 59.7619 119.05 59.515C118.313 59.4002 117.619 59.1655 116.855 59.1655C115.592 59.1655 116.729 59.0476 117.109 58.7877C117.542 58.4912 118.573 58.6555 119.139 58.6555" stroke="#B30000" stroke-width="3" stroke-linecap="round"/>
<path d="M117.55 58.8254C116.705 58.753 116.062 58.4854 115.167 58.4854" stroke="#B30000" stroke-width="3" stroke-linecap="round"/>
<path d="M83.9928 50.1545C83.1009 50.1545 82.2591 49.8145 81.4115 49.8145" stroke="#B30000" stroke-width="3" stroke-linecap="round"/>
<g filter="url(#filter0_dddddddd_2212_158)">
<path d="M69.0146 15.3467L70.0356 18.2922H73.3395L70.6666 20.1127L71.6875 23.0582L69.0146 21.2378L66.3417 23.0582L67.3627 20.1127L64.6897 18.2922H67.9936L69.0146 15.3467Z" fill="#FF0000"/>
<mask id="path-16-inside-1_2212_158" fill="white">
<path d="M80.9088 14.4209C78.3794 10.2889 69.6908 5.271 69.6908 5.271L75.9201 18.3234L76.5627 32.1408L80.8376 32.1552L82.5507 18.3457C82.5507 18.3457 82.5014 17.0228 80.9088 14.4209Z"/>
</mask>
<path d="M69.6908 5.271L89.7124 -29.3705L-21.9536 -93.8608L33.5891 22.5186L69.6908 5.271ZM80.9088 14.4209L115.028 -6.47838L115.028 -6.47838L80.9088 14.4209ZM82.5507 18.3457L122.246 23.2445L122.643 20.0491L122.523 16.8317L82.5507 18.3457ZM80.8376 32.1552L80.6772 72.1549L116.164 72.2742L120.533 37.054L80.8376 32.1552ZM76.5627 32.1408L36.6057 34.0247L38.3723 72.0126L76.4022 72.1405L76.5627 32.1408ZM75.9201 18.3234L115.877 16.4395L115.502 8.36717L112.022 1.07575L75.9201 18.3234ZM69.6908 5.271C49.6692 39.9125 49.6653 39.9102 49.6615 39.908C49.6603 39.9073 49.6565 39.9051 49.654 39.9036C49.649 39.9008 49.6442 39.898 49.6394 39.8952C49.63 39.8898 49.621 39.8846 49.6124 39.8796C49.5954 39.8697 49.5801 39.8608 49.5665 39.8529C49.5395 39.8372 49.5194 39.8254 49.5057 39.8174C49.4787 39.8015 49.4768 39.8002 49.497 39.8123C49.5391 39.8375 49.6606 39.9109 49.838 40.022C50.2229 40.2631 50.7031 40.5771 51.1431 40.8903C51.6566 41.2558 51.6777 41.3093 51.3438 41.0093C51.1552 40.8398 50.6488 40.3745 49.968 39.6184C49.34 38.921 48.1092 37.4766 46.7892 35.3202L115.028 -6.47838C108.994 -16.3365 99.7008 -22.7733 97.5595 -24.2973C95.5112 -25.7551 93.6611 -26.9539 92.3378 -27.7828C91.6611 -28.2066 91.0841 -28.5576 90.6412 -28.8229C90.4189 -28.9561 90.2278 -29.0692 90.0722 -29.1606C89.9944 -29.2064 89.9251 -29.2469 89.8651 -29.2819C89.835 -29.2994 89.8072 -29.3155 89.7818 -29.3303C89.769 -29.3377 89.7569 -29.3447 89.7453 -29.3514C89.7395 -29.3548 89.7339 -29.358 89.7284 -29.3612C89.7257 -29.3628 89.7216 -29.3651 89.7203 -29.3659C89.7163 -29.3682 89.7124 -29.3705 69.6908 5.271ZM46.7892 35.3202C46.105 34.2026 45.1119 32.3116 44.2543 29.6507C43.8265 28.3231 43.4407 26.8291 43.1448 25.1769C42.9971 24.3526 42.8729 23.4952 42.7768 22.606C42.7288 22.1617 42.6879 21.7104 42.6546 21.2522C42.638 21.0232 42.6233 20.7926 42.6106 20.5605C42.6042 20.4444 42.5983 20.328 42.5929 20.2112C42.5902 20.1528 42.5877 20.0943 42.5852 20.0357C42.584 20.0064 42.5828 19.9771 42.5817 19.9477C42.5811 19.9331 42.5802 19.911 42.5799 19.9037C42.5791 19.8817 42.5783 19.8596 82.5507 18.3457C122.523 16.8317 122.522 16.8097 122.521 16.7876C122.521 16.7803 122.52 16.7582 122.52 16.7435C122.519 16.7141 122.517 16.6846 122.516 16.6552C122.514 16.5963 122.511 16.5373 122.508 16.4783C122.503 16.3601 122.497 16.2418 122.49 16.1231C122.477 15.8858 122.462 15.6475 122.445 15.4081C122.41 14.9294 122.367 14.4471 122.314 13.9615C122.209 12.9898 122.069 12.0087 121.891 11.0197C121.536 9.0382 121.039 7.05086 120.4 5.06726C119.119 1.09445 117.305 -2.7589 115.028 -6.47838L46.7892 35.3202ZM42.8549 13.4468L41.1418 27.2563L120.533 37.054L122.246 23.2445L42.8549 13.4468ZM80.9981 -7.84449L76.7231 -7.85887L76.4022 72.1405L80.6772 72.1549L80.9981 -7.84449ZM116.52 30.2569L115.877 16.4395L35.9632 20.2073L36.6057 34.0247L116.52 30.2569ZM112.022 1.07575L105.792 -11.9766L33.5891 22.5186L39.8185 35.571L112.022 1.07575Z" fill="url(#paint0_linear_2212_158)" mask="url(#path-16-inside-1_2212_158)"/>
<mask id="path-18-inside-2_2212_158" fill="white">
<path d="M56.4981 14.4209C59.0274 10.2889 67.7161 5.271 67.7161 5.271L61.4867 18.3234L60.8442 32.1408L56.5692 32.1552L54.8562 18.3457C54.8562 18.3457 54.9054 17.0228 56.4981 14.4209Z"/>
</mask>
<path d="M67.7161 5.271L47.6945 -29.3705L159.361 -93.8608L103.818 22.5186L67.7161 5.271ZM56.4981 14.4209L22.3785 -6.47838L22.3785 -6.47838L56.4981 14.4209ZM54.8562 18.3457L15.1604 23.2445L14.764 20.0491L14.8838 16.8317L54.8562 18.3457ZM56.5692 32.1552L56.7297 72.1549L21.2424 72.2742L16.8734 37.054L56.5692 32.1552ZM60.8442 32.1408L100.801 34.0247L99.0346 72.0126L61.0046 72.1405L60.8442 32.1408ZM61.4867 18.3234L21.5298 16.4395L21.9052 8.36717L25.3851 1.07575L61.4867 18.3234ZM67.7161 5.271C87.7376 39.9125 87.7415 39.9102 87.7454 39.908C87.7466 39.9073 87.7504 39.9051 87.7529 39.9036C87.7578 39.9008 87.7627 39.898 87.7674 39.8952C87.7769 39.8898 87.7859 39.8846 87.7944 39.8796C87.8115 39.8697 87.8268 39.8608 87.8403 39.8529C87.8674 39.8372 87.8875 39.8254 87.9011 39.8174C87.9282 39.8015 87.9301 39.8002 87.9099 39.8123C87.8678 39.8375 87.7463 39.9109 87.5689 40.022C87.184 40.2631 86.7038 40.5771 86.2638 40.8903C85.7503 41.2558 85.7292 41.3093 86.063 41.0093C86.2516 40.8398 86.758 40.3745 87.4389 39.6184C88.0668 38.921 89.2977 37.4766 90.6177 35.3202L22.3785 -6.47838C28.413 -16.3365 37.706 -22.7733 39.8474 -24.2973C41.8957 -25.7551 43.7458 -26.9539 45.069 -27.7828C45.7457 -28.2066 46.3227 -28.5576 46.7657 -28.8229C46.988 -28.9561 47.179 -29.0692 47.3346 -29.1606C47.4125 -29.2064 47.4817 -29.2469 47.5418 -29.2819C47.5718 -29.2994 47.5996 -29.3155 47.6251 -29.3303C47.6378 -29.3377 47.65 -29.3447 47.6615 -29.3514C47.6673 -29.3548 47.673 -29.358 47.6785 -29.3612C47.6812 -29.3628 47.6852 -29.3651 47.6866 -29.3659C47.6905 -29.3682 47.6945 -29.3705 67.7161 5.271ZM90.6177 35.3202C91.3018 34.2026 92.295 32.3116 93.1525 29.6507C93.5804 28.3231 93.9661 26.8291 94.2621 25.1769C94.4098 24.3526 94.534 23.4952 94.6301 22.606C94.6781 22.1617 94.719 21.7104 94.7522 21.2522C94.7688 21.0232 94.7836 20.7926 94.7963 20.5605C94.8027 20.4444 94.8086 20.328 94.8139 20.2112C94.8166 20.1528 94.8192 20.0943 94.8216 20.0357C94.8229 20.0064 94.824 19.9771 94.8252 19.9477C94.8258 19.9331 94.8266 19.911 94.8269 19.9037C94.8278 19.8817 94.8286 19.8596 54.8562 18.3457C14.8838 16.8317 14.8846 16.8097 14.8854 16.7876C14.8857 16.7803 14.8866 16.7582 14.8871 16.7435C14.8883 16.7141 14.8895 16.6846 14.8907 16.6552C14.8932 16.5963 14.8958 16.5373 14.8985 16.4783C14.9039 16.3601 14.9099 16.2418 14.9164 16.1231C14.9294 15.8858 14.9446 15.6475 14.962 15.4081C14.9968 14.9294 15.0403 14.4471 15.0927 13.9615C15.1977 12.9898 15.3382 12.0087 15.5154 11.0197C15.8704 9.0382 16.368 7.05086 17.0073 5.06726C18.2876 1.09445 20.1017 -2.7589 22.3785 -6.47838L90.6177 35.3202ZM94.552 13.4468L96.265 27.2563L16.8734 37.054L15.1604 23.2445L94.552 13.4468ZM56.4088 -7.84449L60.6838 -7.85887L61.0046 72.1405L56.7297 72.1549L56.4088 -7.84449ZM20.8873 30.2569L21.5298 16.4395L101.444 20.2073L100.801 34.0247L20.8873 30.2569ZM25.3851 1.07575L31.6144 -11.9766L103.818 22.5186L97.5884 35.571L25.3851 1.07575Z" fill="url(#paint1_linear_2212_158)" mask="url(#path-18-inside-2_2212_158)"/>
</g>
<defs>
<filter id="filter0_dddddddd_2212_158" x="50.8562" y="5.271" width="35.6945" height="34.8843" filterUnits="userSpaceOnUse" color-interpolation-filters="sRGB">
<feFlood flood-opacity="0" result="BackgroundImageFix"/>
<feColorMatrix in="SourceAlpha" type="matrix" values="0 0 0 0 0 0 0 0 0 0 0 0 0 0 0 0 0 0 127 0" result="hardAlpha"/>
<feOffset dy="4"/>
<feGaussianBlur stdDeviation="2"/>
<feComposite in2="hardAlpha" operator="out"/>
<feColorMatrix type="matrix" values="0 0 0 0 0 0 0 0 0 0 0 0 0 0 0 0 0 0 0.25 0"/>
<feBlend mode="normal" in2="BackgroundImageFix" result="effect1_dropShadow_2212_158"/>
<feColorMatrix in="SourceAlpha" type="matrix" values="0 0 0 0 0 0 0 0 0 0 0 0 0 0 0 0 0 0 127 0" result="hardAlpha"/>
<feOffset dy="4"/>
<feGaussianBlur stdDeviation="2"/>
<feComposite in2="hardAlpha" operator="out"/>
<feColorMatrix type="matrix" values="0 0 0 0 0 0 0 0 0 0 0 0 0 0 0 0 0 0 0.25 0"/>
<feBlend mode="normal" in2="effect1_dropShadow_2212_158" result="effect2_dropShadow_2212_158"/>
<feColorMatrix in="SourceAlpha" type="matrix" values="0 0 0 0 0 0 0 0 0 0 0 0 0 0 0 0 0 0 127 0" result="hardAlpha"/>
<feOffset dy="4"/>
<feGaussianBlur stdDeviation="2"/>
<feComposite in2="hardAlpha" operator="out"/>
<feColorMatrix type="matrix" values="0 0 0 0 0 0 0 0 0 0 0 0 0 0 0 0 0 0 0.25 0"/>
<feBlend mode="normal" in2="effect2_dropShadow_2212_158" result="effect3_dropShadow_2212_158"/>
<feColorMatrix in="SourceAlpha" type="matrix" values="0 0 0 0 0 0 0 0 0 0 0 0 0 0 0 0 0 0 127 0" result="hardAlpha"/>
<feOffset dy="4"/>
<feGaussianBlur stdDeviation="2"/>
<feComposite in2="hardAlpha" operator="out"/>
<feColorMatrix type="matrix" values="0 0 0 0 0 0 0 0 0 0 0 0 0 0 0 0 0 0 0.25 0"/>
<feBlend mode="normal" in2="effect3_dropShadow_2212_158" result="effect4_dropShadow_2212_158"/>
<feColorMatrix in="SourceAlpha" type="matrix" values="0 0 0 0 0 0 0 0 0 0 0 0 0 0 0 0 0 0 127 0" result="hardAlpha"/>
<feOffset dy="4"/>
<feGaussianBlur stdDeviation="2"/>
<feComposite in2="hardAlpha" operator="out"/>
<feColorMatrix type="matrix" values="0 0 0 0 0 0 0 0 0 0 0 0 0 0 0 0 0 0 0.25 0"/>
<feBlend mode="normal" in2="effect4_dropShadow_2212_158" result="effect5_dropShadow_2212_158"/>
<feColorMatrix in="SourceAlpha" type="matrix" values="0 0 0 0 0 0 0 0 0 0 0 0 0 0 0 0 0 0 127 0" result="hardAlpha"/>
<feOffset dy="4"/>
<feGaussianBlur stdDeviation="2"/>
<feComposite in2="hardAlpha" operator="out"/>
<feColorMatrix type="matrix" values="0 0 0 0 0 0 0 0 0 0 0 0 0 0 0 0 0 0 0.25 0"/>
<feBlend mode="normal" in2="effect5_dropShadow_2212_158" result="effect6_dropShadow_2212_158"/>
<feColorMatrix in="SourceAlpha" type="matrix" values="0 0 0 0 0 0 0 0 0 0 0 0 0 0 0 0 0 0 127 0" result="hardAlpha"/>
<feOffset dy="4"/>
<feGaussianBlur stdDeviation="2"/>
<feComposite in2="hardAlpha" operator="out"/>
<feColorMatrix type="matrix" values="0 0 0 0 0 0 0 0 0 0 0 0 0 0 0 0 0 0 0.25 0"/>
<feBlend mode="normal" in2="effect6_dropShadow_2212_158" result="effect7_dropShadow_2212_158"/>
<feColorMatrix in="SourceAlpha" type="matrix" values="0 0 0 0 0 0 0 0 0 0 0 0 0 0 0 0 0 0 127 0" result="hardAlpha"/>
<feOffset dy="4"/>
<feGaussianBlur stdDeviation="2"/>
<feComposite in2="hardAlpha" operator="out"/>
<feColorMatrix type="matrix" values="0 0 0 0 0 0 0 0 0 0 0 0 0 0 0 0 0 0 0.25 0"/>
<feBlend mode="normal" in2="effect7_dropShadow_2212_158" result="effect8_dropShadow_2212_158"/>
<feBlend mode="normal" in="SourceGraphic" in2="effect8_dropShadow_2212_158" result="shape"/>
</filter>
<linearGradient id="paint0_linear_2212_158" x1="76.1469" y1="5.29271" x2="76.0566" y2="32.1391" gradientUnits="userSpaceOnUse">
<stop/>
<stop offset="1" stop-color="#7A7A7A"/>
</linearGradient>
<linearGradient id="paint1_linear_2212_158" x1="61.26" y1="5.29271" x2="61.3503" y2="32.1391" gradientUnits="userSpaceOnUse">
<stop/>
<stop offset="1" stop-color="#7A7A7A"/>
</linearGradient>
</defs>
</svg>
