<svg width="21" height="24" viewBox="0 0 21 24" fill="none" xmlns="http://www.w3.org/2000/svg">
<g filter="url(#filter0_dddddddd_2212_139)">
<path d="M10.7293 6.39014L11.1937 7.98751L12.6963 7.98751L11.4806 8.97474L11.945 10.5721L10.7293 9.58488L9.51367 10.5721L9.97801 8.97474L8.76236 7.98751L10.265 7.98751L10.7293 6.39014Z" fill="#FF0000"/>
<mask id="path-2-inside-1_2212_139" fill="white">
<path d="M16.1395 5.88921C14.9889 3.64822 11.0369 0.92627 11.0369 0.92627L13.871 8.00511L14.1643 15.4984L16.1086 15.5065L16.8866 8.01774C16.8866 8.01774 16.8641 7.30032 16.1395 5.88921Z"/>
</mask>
<path d="M16.1395 5.88921C14.9889 3.64822 11.0369 0.92627 11.0369 0.92627L13.871 8.00511L14.1643 15.4984L16.1086 15.5065L16.8866 8.01774C16.8866 8.01774 16.8641 7.30032 16.1395 5.88921Z" fill="#FF0000"/>
<path d="M11.0369 0.92627L33.7041 -32.0093L-75.2723 -107.067L-26.0953 15.7627L11.0369 0.92627ZM16.1395 5.88921L-19.44 24.1328L-19.44 24.1328L16.1395 5.88921ZM16.8866 8.01774L56.6724 12.1894L56.9515 9.50266L56.8668 6.80245L16.8866 8.01774ZM16.1086 15.5065L15.9798 55.5063L52.1564 55.6579L55.8943 19.6782L16.1086 15.5065ZM14.1643 15.4984L-25.8049 17.0242L-24.3052 55.3375L14.0355 55.4982L14.1643 15.4984ZM13.871 8.00511L53.8402 6.47928L53.5702 -0.41977L51.0032 -6.83136L13.871 8.00511ZM11.0369 0.92627C-11.6304 33.8618 -11.6344 33.8591 -11.6383 33.8563C-11.6397 33.8554 -11.6436 33.8527 -11.6463 33.8509C-11.6515 33.8473 -11.6567 33.8437 -11.6619 33.8401C-11.6722 33.833 -11.6823 33.826 -11.6923 33.8191C-11.7122 33.8053 -11.7315 33.7919 -11.7501 33.779C-11.7873 33.7532 -11.8219 33.729 -11.8541 33.7064C-11.9184 33.6614 -11.974 33.622 -12.0219 33.5878C-12.116 33.5206 -12.1882 33.4677 -12.2461 33.4244C-12.334 33.3588 -12.485 33.2441 -12.7091 33.0539C-12.8716 32.916 -13.5062 32.3747 -14.3725 31.4465C-14.952 30.8256 -17.2999 28.3007 -19.44 24.1328L51.7191 -12.3544C47.1501 -21.2527 40.1657 -26.9489 39.0226 -27.9192C37.6666 -29.07 36.4557 -30.0052 35.5908 -30.6512C35.1444 -30.9847 34.7545 -31.2677 34.4397 -31.4926C34.2815 -31.6056 34.14 -31.7056 34.0172 -31.7917C33.9557 -31.8347 33.8988 -31.8745 33.8466 -31.9107C33.8205 -31.9289 33.7955 -31.9462 33.7718 -31.9626C33.7599 -31.9708 33.7483 -31.9788 33.737 -31.9866C33.7314 -31.9905 33.7258 -31.9943 33.7203 -31.9981C33.7176 -32 33.7135 -32.0028 33.7122 -32.0037C33.7081 -32.0065 33.7041 -32.0093 11.0369 0.92627ZM-19.44 24.1328C-20.2644 22.5271 -21.1375 20.441 -21.8276 17.8891C-22.1715 16.6173 -22.4642 15.2506 -22.6832 13.7948C-22.7924 13.0682 -22.8827 12.3233 -22.9519 11.5612C-22.9865 11.1803 -23.0157 10.7957 -23.0394 10.4074C-23.0512 10.2133 -23.0617 10.0184 -23.0707 9.82262C-23.0753 9.72474 -23.0794 9.62667 -23.0832 9.5284C-23.0851 9.47926 -23.087 9.43008 -23.0887 9.38086C-23.0895 9.35624 -23.0904 9.33162 -23.0912 9.30698C-23.0916 9.29466 -23.0922 9.27617 -23.0924 9.27001C-23.093 9.25153 -23.0936 9.23303 16.8866 8.01774C56.8668 6.80245 56.8662 6.78395 56.8656 6.76545C56.8654 6.75928 56.8648 6.74078 56.8644 6.72844C56.8636 6.70376 56.8627 6.67907 56.8619 6.65436C56.8601 6.60496 56.8583 6.55552 56.8564 6.50603C56.8526 6.40707 56.8484 6.30794 56.8438 6.20866C56.8346 6.0101 56.8239 5.81096 56.8117 5.61125C56.7874 5.21179 56.7569 4.81037 56.7203 4.40712C56.6471 3.60026 56.5494 2.78834 56.4267 1.97237C56.1809 0.337945 55.8372 -1.29628 55.3972 -2.92378C54.5147 -6.18724 53.2681 -9.33761 51.7191 -12.3544L-19.44 24.1328ZM-22.8992 3.8461L-23.6772 11.3349L55.8943 19.6782L56.6724 12.1894L-22.8992 3.8461ZM16.2374 -24.4933L14.2931 -24.5014L14.0355 55.4982L15.9798 55.5063L16.2374 -24.4933ZM54.1336 13.9725L53.8402 6.47928L-26.0983 9.53094L-25.8049 17.0242L54.1336 13.9725ZM51.0032 -6.83136L48.1691 -13.9102L-26.0953 15.7627L-23.2612 22.8416L51.0032 -6.83136Z" fill="url(#paint0_linear_2212_139)" mask="url(#path-2-inside-1_2212_139)"/>
<mask id="path-4-inside-2_2212_139" fill="white">
<path d="M5.03599 5.88921C6.18666 3.64822 10.1387 0.92627 10.1387 0.92627L7.30454 8.00511L7.01123 15.4984L5.06696 15.5065L4.28894 8.01774C4.28894 8.01774 4.31144 7.30032 5.03599 5.88921Z"/>
</mask>
<path d="M5.03599 5.88921C6.18666 3.64822 10.1387 0.92627 10.1387 0.92627L7.30454 8.00511L7.01123 15.4984L5.06696 15.5065L4.28894 8.01774C4.28894 8.01774 4.31144 7.30032 5.03599 5.88921Z" fill="#FF0000"/>
<path d="M10.1387 0.92627L-12.5286 -32.0093L96.4478 -107.067L47.2709 15.7627L10.1387 0.92627ZM5.03599 5.88921L40.6155 24.1328L40.6155 24.1328L5.03599 5.88921ZM4.28894 8.01774L-35.4968 12.1894L-35.776 9.50266L-35.6913 6.80245L4.28894 8.01774ZM5.06696 15.5065L5.19574 55.5063L-30.9808 55.6579L-34.7188 19.6782L5.06696 15.5065ZM7.01123 15.4984L46.9805 17.0242L45.4808 55.3375L7.14001 55.4982L7.01123 15.4984ZM7.30454 8.00511L-32.6647 6.47928L-32.3947 -0.41977L-29.8277 -6.83136L7.30454 8.00511ZM10.1387 0.92627C32.8059 33.8618 32.8099 33.8591 32.8139 33.8563C32.8152 33.8554 32.8192 33.8527 32.8218 33.8509C32.827 33.8473 32.8322 33.8437 32.8374 33.8401C32.8477 33.833 32.8579 33.826 32.8678 33.8191C32.8878 33.8053 32.907 33.7919 32.9256 33.779C32.9628 33.7532 32.9975 33.729 33.0297 33.7064C33.094 33.6614 33.1495 33.622 33.1974 33.5878C33.2916 33.5206 33.3638 33.4677 33.4216 33.4244C33.5095 33.3588 33.6605 33.2441 33.8847 33.0539C34.0472 32.916 34.6817 32.3747 35.5481 31.4465C36.1275 30.8256 38.4755 28.3007 40.6155 24.1328L-30.5435 -12.3544C-25.9746 -21.2527 -18.9902 -26.9489 -17.847 -27.9192C-16.491 -29.07 -15.2801 -30.0052 -14.4153 -30.6512C-13.9689 -30.9847 -13.579 -31.2677 -13.2642 -31.4926C-13.106 -31.6056 -12.9644 -31.7056 -12.8417 -31.7917C-12.7802 -31.8347 -12.7233 -31.8745 -12.671 -31.9107C-12.6449 -31.9289 -12.62 -31.9462 -12.5962 -31.9626C-12.5844 -31.9708 -12.5728 -31.9788 -12.5615 -31.9866C-12.5559 -31.9905 -12.5503 -31.9943 -12.5448 -31.9981C-12.5421 -32 -12.538 -32.0028 -12.5366 -32.0037C-12.5326 -32.0065 -12.5286 -32.0093 10.1387 0.92627ZM40.6155 24.1328C41.44 22.5271 42.3131 20.441 43.0031 17.8891C43.347 16.6173 43.6397 15.2506 43.8587 13.7948C43.968 13.0682 44.0583 12.3233 44.1274 11.5612C44.162 11.1803 44.1912 10.7957 44.2149 10.4074C44.2268 10.2133 44.2372 10.0184 44.2463 9.82262C44.2508 9.72474 44.255 9.62667 44.2588 9.5284C44.2607 9.47926 44.2625 9.43008 44.2642 9.38086C44.2651 9.35624 44.2659 9.33162 44.2667 9.30698C44.2671 9.29466 44.2678 9.27617 44.268 9.27001C44.2685 9.25153 44.2691 9.23303 4.28894 8.01774C-35.6913 6.80245 -35.6907 6.78395 -35.6901 6.76545C-35.6899 6.75928 -35.6893 6.74078 -35.6889 6.72844C-35.6881 6.70376 -35.6872 6.67907 -35.6863 6.65436C-35.6846 6.60496 -35.6828 6.55552 -35.6809 6.50603C-35.677 6.40707 -35.6728 6.30794 -35.6682 6.20866C-35.6591 6.0101 -35.6484 5.81096 -35.6362 5.61125C-35.6118 5.21179 -35.5814 4.81037 -35.5448 4.40712C-35.4716 3.60026 -35.3739 2.78834 -35.2511 1.97237C-35.0053 0.337945 -34.6617 -1.29628 -34.2216 -2.92378C-33.3392 -6.18724 -32.0926 -9.33761 -30.5435 -12.3544L40.6155 24.1328ZM44.0747 3.8461L44.8527 11.3349L-34.7188 19.6782L-35.4968 12.1894L44.0747 3.8461ZM4.93818 -24.4933L6.88245 -24.5014L7.14001 55.4982L5.19574 55.5063L4.93818 -24.4933ZM-32.958 13.9725L-32.6647 6.47928L47.2738 9.53094L46.9805 17.0242L-32.958 13.9725ZM-29.8277 -6.83136L-26.9935 -13.9102L47.2709 15.7627L44.4367 22.8416L-29.8277 -6.83136Z" fill="url(#paint1_linear_2212_139)" mask="url(#path-4-inside-2_2212_139)"/>
</g>
<defs>
<filter id="filter0_dddddddd_2212_139" x="0.288818" y="0.92627" width="20.5979" height="22.5801" filterUnits="userSpaceOnUse" color-interpolation-filters="sRGB">
<feFlood flood-opacity="0" result="BackgroundImageFix"/>
<feColorMatrix in="SourceAlpha" type="matrix" values="0 0 0 0 0 0 0 0 0 0 0 0 0 0 0 0 0 0 127 0" result="hardAlpha"/>
<feOffset dy="4"/>
<feGaussianBlur stdDeviation="2"/>
<feComposite in2="hardAlpha" operator="out"/>
<feColorMatrix type="matrix" values="0 0 0 0 0 0 0 0 0 0 0 0 0 0 0 0 0 0 0.25 0"/>
<feBlend mode="normal" in2="BackgroundImageFix" result="effect1_dropShadow_2212_139"/>
<feColorMatrix in="SourceAlpha" type="matrix" values="0 0 0 0 0 0 0 0 0 0 0 0 0 0 0 0 0 0 127 0" result="hardAlpha"/>
<feOffset dy="4"/>
<feGaussianBlur stdDeviation="2"/>
<feComposite in2="hardAlpha" operator="out"/>
<feColorMatrix type="matrix" values="0 0 0 0 0 0 0 0 0 0 0 0 0 0 0 0 0 0 0.25 0"/>
<feBlend mode="normal" in2="effect1_dropShadow_2212_139" result="effect2_dropShadow_2212_139"/>
<feColorMatrix in="SourceAlpha" type="matrix" values="0 0 0 0 0 0 0 0 0 0 0 0 0 0 0 0 0 0 127 0" result="hardAlpha"/>
<feOffset dy="4"/>
<feGaussianBlur stdDeviation="2"/>
<feComposite in2="hardAlpha" operator="out"/>
<feColorMatrix type="matrix" values="0 0 0 0 0 0 0 0 0 0 0 0 0 0 0 0 0 0 0.25 0"/>
<feBlend mode="normal" in2="effect2_dropShadow_2212_139" result="effect3_dropShadow_2212_139"/>
<feColorMatrix in="SourceAlpha" type="matrix" values="0 0 0 0 0 0 0 0 0 0 0 0 0 0 0 0 0 0 127 0" result="hardAlpha"/>
<feOffset dy="4"/>
<feGaussianBlur stdDeviation="2"/>
<feComposite in2="hardAlpha" operator="out"/>
<feColorMatrix type="matrix" values="0 0 0 0 0 0 0 0 0 0 0 0 0 0 0 0 0 0 0.25 0"/>
<feBlend mode="normal" in2="effect3_dropShadow_2212_139" result="effect4_dropShadow_2212_139"/>
<feColorMatrix in="SourceAlpha" type="matrix" values="0 0 0 0 0 0 0 0 0 0 0 0 0 0 0 0 0 0 127 0" result="hardAlpha"/>
<feOffset dy="4"/>
<feGaussianBlur stdDeviation="2"/>
<feComposite in2="hardAlpha" operator="out"/>
<feColorMatrix type="matrix" values="0 0 0 0 0 0 0 0 0 0 0 0 0 0 0 0 0 0 0.25 0"/>
<feBlend mode="normal" in2="effect4_dropShadow_2212_139" result="effect5_dropShadow_2212_139"/>
<feColorMatrix in="SourceAlpha" type="matrix" values="0 0 0 0 0 0 0 0 0 0 0 0 0 0 0 0 0 0 127 0" result="hardAlpha"/>
<feOffset dy="4"/>
<feGaussianBlur stdDeviation="2"/>
<feComposite in2="hardAlpha" operator="out"/>
<feColorMatrix type="matrix" values="0 0 0 0 0 0 0 0 0 0 0 0 0 0 0 0 0 0 0.25 0"/>
<feBlend mode="normal" in2="effect5_dropShadow_2212_139" result="effect6_dropShadow_2212_139"/>
<feColorMatrix in="SourceAlpha" type="matrix" values="0 0 0 0 0 0 0 0 0 0 0 0 0 0 0 0 0 0 127 0" result="hardAlpha"/>
<feOffset dy="4"/>
<feGaussianBlur stdDeviation="2"/>
<feComposite in2="hardAlpha" operator="out"/>
<feColorMatrix type="matrix" values="0 0 0 0 0 0 0 0 0 0 0 0 0 0 0 0 0 0 0.25 0"/>
<feBlend mode="normal" in2="effect6_dropShadow_2212_139" result="effect7_dropShadow_2212_139"/>
<feColorMatrix in="SourceAlpha" type="matrix" values="0 0 0 0 0 0 0 0 0 0 0 0 0 0 0 0 0 0 127 0" result="hardAlpha"/>
<feOffset dy="4"/>
<feGaussianBlur stdDeviation="2"/>
<feComposite in2="hardAlpha" operator="out"/>
<feColorMatrix type="matrix" values="0 0 0 0 0 0 0 0 0 0 0 0 0 0 0 0 0 0 0.25 0"/>
<feBlend mode="normal" in2="effect7_dropShadow_2212_139" result="effect8_dropShadow_2212_139"/>
<feBlend mode="normal" in="SourceGraphic" in2="effect8_dropShadow_2212_139" result="shape"/>
</filter>
<linearGradient id="paint0_linear_2212_139" x1="13.9731" y1="0.938572" x2="13.9121" y2="15.4973" gradientUnits="userSpaceOnUse">
<stop/>
<stop offset="1" stop-color="#7A7A7A"/>
</linearGradient>
<linearGradient id="paint1_linear_2212_139" x1="7.20243" y1="0.938572" x2="7.26342" y2="15.4973" gradientUnits="userSpaceOnUse">
<stop/>
<stop offset="1" stop-color="#7A7A7A"/>
</linearGradient>
</defs>
</svg>
