<svg width="284" height="418" viewBox="0 0 284 418" fill="none" xmlns="http://www.w3.org/2000/svg">
<path d="M142 145.648L148.735 166.49H170.532L152.898 179.371L159.634 200.212L142 187.332L124.366 200.212L131.102 179.371L113.468 166.49H135.265L142 145.648Z" fill="#FF0000"/>
<path d="M253.741 140.815C238.683 104.753 186.885 61 186.885 61L223.947 174.927L227.671 295.575L253.177 295.669L263.506 175.073C263.506 175.073 263.223 163.522 253.741 140.815Z" stroke="url(#paint0_linear_2224_41)" stroke-width="40"/>
<path d="M31.1799 140.815C46.2377 104.753 98.0364 61 98.0364 61L60.9741 174.927L57.2497 295.575L31.7444 295.669L21.4148 175.073C21.4148 175.073 21.6982 163.522 31.1799 140.815Z" stroke="url(#paint1_linear_2224_41)" stroke-width="40"/>
<path d="M6.72 392V323.36H64.224C71.328 323.36 76.832 325.152 80.736 328.736C84.704 332.32 86.688 337.76 86.688 345.056C86.688 352.352 84.704 357.792 80.736 361.376C76.832 364.96 71.328 366.752 64.224 366.752H22.08V392H6.72ZM62.4 335.84H22.08V354.176L62.4 354.272C65.216 354.272 67.36 353.568 68.832 352.16C70.368 350.752 71.136 348.384 71.136 345.056C71.136 341.664 70.368 339.296 68.832 337.952C67.36 336.544 65.216 335.84 62.4 335.84ZM96.2513 392V323.36H153.755C160.859 323.36 166.363 325.152 170.267 328.736C174.235 332.32 176.219 337.76 176.219 345.056C176.219 351.264 174.779 356.128 171.899 359.648C169.019 363.168 164.923 365.376 159.611 366.272L175.451 392H157.979L143.291 366.752H111.611V392H96.2513ZM151.931 335.84H111.611V354.176L151.931 354.272C154.747 354.272 156.891 353.568 158.363 352.16C159.899 350.752 160.667 348.384 160.667 345.056C160.667 341.664 159.899 339.296 158.363 337.952C156.891 336.544 154.747 335.84 151.931 335.84ZM222.407 392.48C210.183 392.48 200.711 389.568 193.991 383.744C187.271 377.856 183.911 369.152 183.911 357.632C183.911 346.176 187.271 337.536 193.991 331.712C200.711 325.824 210.407 322.88 223.079 322.88H240.359C253.031 322.88 262.727 325.824 269.447 331.712C276.167 337.536 279.527 346.176 279.527 357.632C279.527 369.152 276.167 377.856 269.447 383.744C262.727 389.568 253.191 392.48 240.839 392.48H222.407ZM224.135 335.36C217.031 335.36 211.495 336.64 207.527 339.2C203.559 341.76 201.063 345.824 200.039 351.392H263.399C262.375 345.824 259.879 341.76 255.911 339.2C251.943 336.64 246.407 335.36 239.303 335.36H224.135ZM224.423 380H239.303C246.471 380 252.007 378.72 255.911 376.16C259.879 373.6 262.375 369.504 263.399 363.872H200.039C201.063 369.504 203.559 373.6 207.527 376.16C211.495 378.72 217.127 380 224.423 380Z" fill="white"/>
<defs>
<linearGradient id="paint0_linear_2224_41" x1="225.403" y1="61.1425" x2="224.536" y2="295.563" gradientUnits="userSpaceOnUse">
<stop/>
<stop offset="1" stop-color="#7A7A7A"/>
</linearGradient>
<linearGradient id="paint1_linear_2224_41" x1="59.5182" y1="61.1425" x2="60.3855" y2="295.563" gradientUnits="userSpaceOnUse">
<stop/>
<stop offset="1" stop-color="#7A7A7A"/>
</linearGradient>
</defs>
</svg>
